<svg xmlns="http://www.w3.org/2000/svg" viewBox="0 0 83.3 83.3" xmlns:v="https://vecta.io/nano"><path d="M9.27 28.05c-1.58 14.42 3.65 23.91 14.11 29.62h0c.98 3.45 3.08 6.68 6.24 9.28C15.03 62.7 4.01 46.84 9.27 28.05zm41.05 27.82c7.14 3.16-5.43 10.74-17.5 1.82 3.65 2.45 7.24 1.31 3.55-2.86-1.31-1.48-2.93-3.59-3.99-5.9 4.73 5.82 10.44 6.16 17.61 6.91.11.01.21.02.32.04z" fill="#95b5cd"/><path d="M9.27,28.05c-5.26,18.79,5.76,34.65,20.35,38.9-3.15-2.61-5.25-5.83-6.24-9.28-1.35-4.72-.61-9.87,2.37-14.47.51,5.13,1.96,11.05,7.06,14.49,12.06,8.93,24.64,1.34,17.5-1.82,10,1.21,14.51,9.55,5.85,17.75h0c-4.43,2.02-9.35,3.14-14.53,3.14-19.39,0-35.11-15.72-35.11-35.11,0-4.82.97-9.41,2.74-13.6Z" fill="#fff"/><path d="M47.38 13.14c-3.33-.29-6.27.12-8.84 1.19h0c-8.08-2.67-17.08-.6-24.29 5.36C24.63 9.14 37.21 7.58 47.38 13.14zm11.27 11.77c1.6 11.29-12.79 11.08-22.1 3.92 16.7 7.86 16.08-13.94-4.45-9.62 10.47-5.17 25.65.77 22.16 9.14 1.85-.74 3.33-1.87 4.4-3.44z" fill="#0077a6"/><path d="M39.86 17.3c8.2-.34 16.04 4.02 14.77 9.87-.66.47-1.38.87-2.18 1.18 2.5-5.98-4.55-10.72-12.59-11.05zm18.79 7.61a8.52 8.52 0 0 1-1.69 1.85c-.09 4.6-3.32 6.81-7.63 7.07 5.75.33 10.25-2.35 9.32-8.92z" fill="#16406d"/><path d="M72.44,58.53c-2.39,4.36-5.68,8.14-9.61,11.12h0c6.57-9.01-1.84-16.4-10.7-17.3,6.54.55,16.37-1.09,20.32,6.17Z" fill="#0077a6"/><path d="M32.1,19.21c1.82-2.21,3.95-3.85,6.44-4.88,2.57-1.07,5.51-1.48,8.84-1.19-10.17-5.56-22.75-4-33.13,6.55,6.43-8.02,16.31-13.15,27.39-13.15,5.54,0,10.78,1.28,15.44,3.57,6.7,7.01,7.42,14.9,4.61,23.34,3.59-4.81,5.74-10.1,5.05-16.34,3.64,3.71,6.45,8.24,8.16,13.27h0c-5.08,7.94-12.54,11.18-19.81,11.75,8.15,1.09,15.25-.9,21.17-6.3.32,1.89.49,3.84.49,5.82,0,3.42-.49,6.73-1.4,9.86h0c-3.4-.15-6.79-1.24-10.2-2.98,4,2.67,6.46,5.98,7.29,10-3.95-7.27-13.78-5.62-20.32-6.17-7.16-.72-12.89-1.07-17.6-6.91-4.76-5.88-6.62-15.8-17.94-13.9.87-1.4,2.15-4.05,6.04-3.64,2.11.22,4.09,1.49,6.36-.1-1.8-.1-3.56-.98-5.37-.29,3.65-4.48,12.54.12,18.35-.81-1.5,1.19-3.27,1.95-5.41,2.11,9.32,7.16,23.71,7.36,22.1-3.92-1.07,1.57-2.54,2.71-4.4,3.44,3.49-8.37-11.69-14.31-22.16-9.14Z" fill="#2b95d2"/></svg>