<?xml version="1.0" encoding="UTF-8" standalone="no"?>
<svg
   xmlns:dc="http://purl.org/dc/elements/1.1/"
   xmlns:cc="http://creativecommons.org/ns#"
   xmlns:rdf="http://www.w3.org/1999/02/22-rdf-syntax-ns#"
   xmlns:svg="http://www.w3.org/2000/svg"
   xmlns="http://www.w3.org/2000/svg"
   xmlns:sodipodi="http://sodipodi.sourceforge.net/DTD/sodipodi-0.dtd"
   xmlns:inkscape="http://www.inkscape.org/namespaces/inkscape"
   version="1.1"
   id="Camada_1"
   x="0px"
   y="0px"
   viewBox="0 0 5686.32 3249.71"
   style="enable-background:new 0 0 5686.32 3249.71;"
   xml:space="preserve"
   sodipodi:docname="logo.svg"
   inkscape:version="1.0.2-2 (e86c870879, 2021-01-15)"><metadata
   id="metadata189"><rdf:RDF><cc:Work
       rdf:about=""><dc:format>image/svg+xml</dc:format><dc:type
         rdf:resource="http://purl.org/dc/dcmitype/StillImage" /><dc:title></dc:title></cc:Work></rdf:RDF></metadata><defs
   id="defs187" /><sodipodi:namedview
   pagecolor="#ffffff"
   bordercolor="#666666"
   borderopacity="1"
   objecttolerance="10"
   gridtolerance="10"
   guidetolerance="10"
   inkscape:pageopacity="0"
   inkscape:pageshadow="2"
   inkscape:window-width="3200"
   inkscape:window-height="1284"
   id="namedview185"
   showgrid="false"
   inkscape:zoom="0.13532478"
   inkscape:cx="4294.6406"
   inkscape:cy="2749.5951"
   inkscape:window-x="-9"
   inkscape:window-y="-9"
   inkscape:window-maximized="1"
   inkscape:current-layer="Camada_1" />
<style
   type="text/css"
   id="style2">
	.st0{fill:#183A68;}
	.st1{fill:#009FE3;}
	.st2{fill:#FFFFFF;}
</style>
<g
   id="g27"
   transform="matrix(0.84979106,0,0,0.88533412,7536.5642,7097.543)">
	<polygon
   class="st0"
   points="-8604.73,-6841.59 -8664.15,-6738.66 -8604.73,-6635.74 -8485.88,-6635.74 -8452.25,-6693.99 -8164.27,-6757.71 -8164.27,-5956.73 -8219.4,-5861.24 -8159.98,-5758.32 -8041.13,-5758.32 -7981.71,-5861.24 -8036.84,-5956.73 -8036.84,-6785.9 -7928.52,-6809.87 -7915.96,-6788.13 -7797.12,-6788.13 -7737.69,-6891.05 -7797.12,-6993.98 -7915.96,-6993.98 -7949.6,-6935.72 -8473.33,-6819.85 -8485.88,-6841.59 "
   id="polygon4" />
	<polygon
   class="st1"
   points="-7722.99,-6586.51 -7782.42,-6689.44 -7901.27,-6689.44 -7960.69,-6586.51 -7905.56,-6491.02 -7905.56,-5586.89 -7778.13,-5586.89 -7778.13,-5725.38 -7379.35,-5638.03 -7345.83,-5579.97 -7226.98,-5579.97 -7167.55,-5682.89 -7226.98,-5785.82 -7345.83,-5785.82 -7358.48,-5763.91 -7778.13,-5855.84 -7778.13,-6491.02 "
   id="polygon6" />
	<g
   id="g25">
		<path
   class="st1"
   d="m -3630,-6277.51 v -109.42 c 33.41,-18.93 81.57,-28.4 144.5,-28.4 60.14,0 104.96,12.95 134.48,38.84 29.51,25.89 44.27,66.13 44.27,120.7 v 271.46 h -119.44 v -51.79 c -17.83,36.21 -52.91,54.3 -105.24,54.3 -41.22,0 -73.37,-11.69 -96.47,-35.08 -23.11,-23.39 -34.67,-52.62 -34.67,-87.7 0,-40.64 14.89,-72.25 44.69,-94.8 29.78,-22.55 73.92,-33.83 132.39,-33.83 h 53.46 v -29.24 c 0,-35.63 -23.67,-53.46 -71,-53.46 -45.67,0 -88,12.81 -126.97,38.42 z m 197.96,119.44 h -39.26 c -20.61,0 -36.48,4.46 -47.61,13.36 -11.15,8.92 -16.71,20.34 -16.71,34.25 0,28.4 16.42,42.6 49.28,42.6 17.25,0 30.62,-5.29 40.09,-15.87 9.46,-10.57 14.2,-25.06 14.2,-43.43 v -30.91 z"
   id="path8" />
		<path
   class="st1"
   d="m -3088.75,-6577.37 v 232.2 c 28.95,-46.77 71,-70.16 126.13,-70.16 52.9,0 96.6,19.21 131.14,57.64 34.52,38.42 51.79,91.04 51.79,157.87 0,59.59 -16.58,110.82 -49.7,153.69 -33.14,42.89 -77.26,64.31 -132.39,64.31 -56.25,0 -98.56,-23.66 -126.96,-71 v 65.99 h -121.95 v -590.54 z m 93.55,493.64 c 25.61,0 47.32,-10.44 65.15,-31.32 17.82,-20.88 26.73,-48.3 26.73,-82.28 0,-36.75 -8.77,-65.42 -26.31,-86.03 -17.54,-20.59 -39.13,-30.9 -64.73,-30.9 -25.62,0 -47.75,9.75 -66.4,29.24 -18.66,19.5 -27.98,46.77 -27.98,81.86 0,36.2 8.63,65.15 25.89,86.87 17.24,21.7 39.8,32.56 67.65,32.56 z"
   id="path10" />
		<path
   id="XMLID_9_"
   class="st0"
   d="m -4588.77,-6572.44 h -207.91 v 590.61 h 207.91 c 188.28,0 304.86,-104.22 304.86,-294.44 0,-191.94 -113.66,-296.17 -304.86,-296.17 z m 0.2,459.83 h -62.32 v -329.05 h 62.32 c 90.77,0 152.23,59.56 152.23,165.47 0,104.01 -61.46,163.58 -152.23,163.58 z" />
		<polygon
   id="XMLID_8_"
   class="st0"
   points="-6566.43,-6443.16 -6566.43,-6572.44 -7039.78,-6572.44 -7039.78,-6443.16 -6881.66,-6443.16 -6881.66,-5981.83 -6724.55,-5981.83 -6724.55,-6443.16 " />
		<rect
   id="XMLID_7_"
   x="-4216.5298"
   y="-6572.4399"
   class="st0"
   width="157.10001"
   height="590.62" />
		<path
   id="XMLID_4_"
   class="st0"
   d="m -5210.25,-6572.44 -227.95,590.62 h 157.1 l 31.15,-80.71 h 201.08 l 31.15,80.71 h 157.1 l -227.95,-590.62 z m 6.59,389.97 54.25,-156.11 54.25,156.11 z" />
		<polygon
   id="XMLID_3_"
   class="st0"
   points="-6342.55,-6219.81 -6106.73,-6219.81 -6106.73,-6349.09 -6342.55,-6349.09 -6342.55,-6444.47 -6098.88,-6444.47 -6098.88,-6573.75 -6499.66,-6573.75 -6499.66,-5983.13 -6499.66,-5981.83 -6098.88,-5981.83 -6098.88,-6111.11 -6342.55,-6111.11 " />
		<path
   id="XMLID_2_"
   class="st0"
   d="m -5587.47,-6210.73 c -27.1,49.92 -79.97,83.82 -140.77,83.82 -88.4,0 -160.06,-71.66 -160.06,-160.06 0,-88.4 71.66,-160.07 160.06,-160.07 60.8,0 113.67,33.9 140.77,83.82 h 154.39 c -33.91,-131.56 -153,-228.9 -295.15,-228.9 -168.53,0 -305.15,136.62 -305.15,305.15 0,168.53 136.62,305.15 305.15,305.15 142.15,0 261.25,-97.34 295.16,-228.9 h -154.4 z" />
		<rect
   id="XMLID_1_"
   x="-3874"
   y="-6572.4399"
   class="st1"
   width="129.08"
   height="590.62" />
		<circle
   class="st1"
   cx="-3966.71"
   cy="-6041.3599"
   r="59.540001"
   id="circle19" />
		<g
   id="g23">
			<path
   class="st1"
   d="m -2437.97,-6395.34 v 104.21 c -29.47,-17.22 -63.92,-25.84 -103.38,-25.84 -14.46,0 -25.57,2.92 -33.35,8.75 -7.79,5.84 -11.67,13.21 -11.67,22.09 0,5 1.38,9.73 4.17,14.17 2.77,4.45 7.36,8.62 13.76,12.51 6.38,3.89 12.51,7.37 18.34,10.42 5.84,3.06 13.89,6.81 24.18,11.25 10.28,4.46 18.47,8.34 24.59,11.67 25.56,13.34 46.13,28.76 61.69,46.27 15.55,17.51 23.34,39.89 23.34,67.11 0,41.69 -15.01,73.93 -45.02,96.71 -30.01,22.8 -69.76,34.18 -119.22,34.18 -51.14,0 -93.93,-8.61 -128.39,-25.85 v -108.38 c 38.35,26.68 78.92,40.02 121.72,40.02 30.56,0 45.85,-9.72 45.85,-29.18 0,-5 -1.39,-9.72 -4.17,-14.17 -2.79,-4.44 -7.5,-8.61 -14.17,-12.51 -6.67,-3.88 -12.79,-7.09 -18.34,-9.59 -5.56,-2.5 -13.63,-5.96 -24.18,-10.42 -10.56,-4.44 -18.63,-8.05 -24.18,-10.84 -56.14,-26.68 -84.2,-66.7 -84.2,-120.05 0,-41.12 15.7,-73.08 47.1,-95.88 31.39,-22.78 70.45,-34.18 117.13,-34.18 43.37,0.02 79.49,5.86 108.4,17.53 z"
   id="path21" />
		</g>
	</g>
</g>
<g
   id="g55">
	<polygon
   class="st2"
   points="-8036.84,-4794.95 -7928.52,-4818.91 -7915.96,-4797.17 -7797.12,-4797.17 -7737.69,-4900.1    -7797.12,-5003.02 -7915.96,-5003.02 -7949.6,-4944.76 -8473.33,-4828.89 -8485.88,-4850.63 -8604.73,-4850.63 -8664.15,-4747.71    -8604.73,-4644.78 -8485.88,-4644.78 -8452.25,-4703.04 -8164.27,-4766.75 -8164.27,-3965.78 -8219.4,-3870.28 -8159.98,-3767.36    -8041.13,-3767.36 -7981.71,-3870.28 -8036.84,-3965.78  "
   id="polygon29" />
	<polygon
   class="st2"
   points="-7345.83,-3794.86 -7358.48,-3772.95 -7778.13,-3864.88 -7778.13,-4500.07 -7722.99,-4595.56    -7782.42,-4698.48 -7901.27,-4698.48 -7960.69,-4595.56 -7905.56,-4500.07 -7905.56,-3595.93 -7778.13,-3595.93 -7778.13,-3734.43    -7379.35,-3647.07 -7345.83,-3589.01 -7226.98,-3589.01 -7167.55,-3691.94 -7226.98,-3794.86  "
   id="polygon31" />
	<path
   class="st2"
   d="M-3351.02-4385.54c-29.52-25.89-74.34-38.84-134.48-38.84c-62.93,0-111.09,9.47-144.5,28.4v109.42   c38.97-25.61,81.3-38.42,126.96-38.42c47.32,0,71,17.82,71,53.46v29.24h-53.46c-58.47,0-102.61,11.27-132.39,33.83   c-29.8,22.55-44.69,54.16-44.69,94.8c0,35.08,11.55,64.31,34.67,87.7c23.1,23.39,55.26,35.08,96.47,35.08   c52.33,0,87.42-18.09,105.24-54.3v51.79h119.44v-271.46C-3306.75-4319.4-3321.51-4359.65-3351.02-4385.54z M-3432.04-4136.21   c0,18.38-4.74,32.86-14.2,43.43c-9.47,10.58-22.84,15.87-40.09,15.87c-32.86,0-49.28-14.2-49.28-42.6   c0-13.91,5.56-25.33,16.71-34.25c11.13-8.9,27-13.36,47.61-13.36h39.26V-4136.21z"
   id="path33" />
	<path
   class="st2"
   d="M-2962.63-4424.38c-55.13,0-97.18,23.39-126.13,70.16v-232.2h-121.95v590.53h121.95v-65.99   c28.4,47.33,70.71,71,126.96,71c55.13,0,99.25-21.43,132.39-64.31c33.12-42.87,49.7-94.1,49.7-153.69   c0-66.82-17.27-119.44-51.79-157.87C-2866.02-4405.16-2909.73-4424.38-2962.63-4424.38z M-2930.05-4124.09   c-17.83,20.88-39.54,31.32-65.15,31.32c-27.85,0-50.4-10.86-67.66-32.58c-17.27-21.72-25.89-50.67-25.89-86.87   c0-35.08,9.32-62.36,27.98-81.86c18.65-19.49,40.78-29.24,66.4-29.24c25.6,0,47.19,10.31,64.73,30.9   c17.54,20.61,26.31,49.28,26.31,86.03C-2903.32-4172.4-2912.23-4144.98-2930.05-4124.09z"
   id="path35" />
	<path
   class="st2"
   d="M-4588.77-4581.48h-207.91v590.61h207.91c188.28,0,304.86-104.22,304.86-294.44   C-4283.91-4477.25-4397.57-4581.48-4588.77-4581.48z M-4588.57-4121.65h-62.32v-329.05h62.32c90.77,0,152.23,59.56,152.23,165.47   C-4436.34-4181.22-4497.8-4121.65-4588.57-4121.65z"
   id="path37" />
	<polygon
   class="st2"
   points="-7039.78,-4452.2 -6881.66,-4452.2 -6881.66,-3990.87 -6724.55,-3990.87 -6724.55,-4452.2    -6566.43,-4452.2 -6566.43,-4581.49 -7039.78,-4581.49  "
   id="polygon39" />
	<rect
   x="-4216.53"
   y="-4581.49"
   class="st2"
   width="157.1"
   height="590.62"
   id="rect41" />
	<path
   class="st2"
   d="M-5210.25-4581.49l-227.95,590.62h157.1l31.15-80.71h201.08l31.15,80.71h157.1l-227.95-590.62H-5210.25z    M-5203.66-4191.51l54.25-156.11l54.25,156.11H-5203.66z"
   id="path43" />
	<polygon
   class="st2"
   points="-6499.66,-3992.17 -6499.66,-3990.87 -6098.88,-3990.87 -6098.88,-4120.15 -6342.55,-4120.15    -6342.55,-4228.85 -6106.73,-4228.85 -6106.73,-4358.14 -6342.55,-4358.14 -6342.55,-4453.51 -6098.88,-4453.51 -6098.88,-4582.79    -6499.66,-4582.79  "
   id="polygon45" />
	<path
   class="st2"
   d="M-5587.47-4219.77c-27.1,49.92-79.97,83.82-140.77,83.82c-88.4,0-160.06-71.66-160.06-160.06   c0-88.4,71.66-160.07,160.06-160.07c60.8,0,113.67,33.9,140.77,83.82h154.38c-33.91-131.56-153-228.9-295.15-228.9   c-168.53,0-305.15,136.62-305.15,305.15c0,168.53,136.62,305.15,305.15,305.15c142.15,0,261.25-97.34,295.16-228.9H-5587.47z"
   id="path47" />
	<rect
   x="-3874"
   y="-4581.49"
   class="st2"
   width="129.08"
   height="590.62"
   id="rect49" />
	<circle
   class="st2"
   cx="-3966.71"
   cy="-4050.41"
   r="59.54"
   id="circle51" />
	<path
   class="st2"
   d="M-2439.64-4188.87c-15.57-17.51-36.13-32.93-61.69-46.27c-6.12-3.33-14.32-7.22-24.59-11.67   c-10.29-4.44-18.34-8.19-24.18-11.26c-5.84-3.05-11.96-6.53-18.34-10.42c-6.4-3.88-10.98-8.05-13.76-12.51   c-2.79-4.44-4.17-9.17-4.17-14.17c0-8.88,3.88-16.26,11.67-22.09c7.78-5.84,18.89-8.75,33.35-8.75c39.46,0,73.91,8.62,103.38,25.84   v-104.21c-28.91-11.67-65.03-17.51-108.38-17.51c-46.69,0-85.74,11.4-117.13,34.18c-31.41,22.8-47.1,54.75-47.1,95.88   c0,53.36,28.06,93.37,84.2,120.05c5.55,2.79,13.61,6.4,24.18,10.84c10.55,4.46,18.62,7.92,24.18,10.42   c5.55,2.5,11.67,5.71,18.34,9.59c6.67,3.9,11.39,8.06,14.17,12.51c2.77,4.45,4.17,9.17,4.17,14.17c0,19.46-15.29,29.18-45.85,29.18   c-42.8,0-83.37-13.34-121.72-40.02v108.38c34.46,17.23,77.25,25.85,128.39,25.85c49.46,0,89.21-11.39,119.22-34.18   c30.01-22.78,45.02-55.02,45.02-96.71C-2416.29-4148.99-2424.08-4171.37-2439.64-4188.87z"
   id="path53" />
</g>
<g
   id="g80">
	<polygon
   class="st0"
   points="2794.73,-7485.89 2659.5,-7485.89 2621.23,-7419.6 2025.34,-7287.76 2011.06,-7312.5 1875.83,-7312.5    1808.22,-7195.39 1875.83,-7078.28 2011.06,-7078.28 2049.33,-7144.57 2376.98,-7217.06 2376.98,-6305.72 2314.25,-6197.07    2381.86,-6079.96 2517.09,-6079.96 2584.7,-6197.07 2521.97,-6305.72 2521.97,-7249.14 2645.22,-7276.41 2659.5,-7251.67    2794.73,-7251.67 2862.34,-7368.78  "
   id="polygon57" />
	<polygon
   class="st1"
   points="3443.42,-6111.26 3308.2,-6111.26 3293.81,-6086.33 2816.33,-6190.92 2816.33,-6913.63    2879.06,-7022.28 2811.45,-7139.39 2676.22,-7139.39 2608.61,-7022.28 2671.34,-6913.63 2671.34,-5884.92 2816.33,-5884.92    2816.33,-6042.49 3270.06,-5943.1 3308.2,-5877.04 3443.42,-5877.04 3511.03,-5994.15  "
   id="polygon59" />
	<g
   id="g78">
		<path
   class="st1"
   d="M3907.75-5178.49v-124.38c37.98-21.51,92.72-32.28,164.26-32.28c68.36,0,119.3,14.72,152.86,44.15    c33.54,29.43,50.32,75.17,50.32,137.2v308.57h-135.77v-58.87c-20.27,41.16-60.14,61.72-119.63,61.72    c-46.85,0-83.4-13.29-109.66-39.88c-26.27-26.59-39.4-59.81-39.4-99.69c0-46.2,16.93-82.12,50.8-107.76    c33.85-25.64,84.03-38.45,150.49-38.45h60.76v-33.23c0-40.5-26.91-60.76-80.7-60.76    C4000.16-5222.16,3952.05-5207.6,3907.75-5178.49z M4132.77-5042.72h-44.62c-23.42,0-41.46,5.07-54.12,15.19    c-12.67,10.14-18.99,23.12-18.99,38.93c0,32.28,18.66,48.42,56.02,48.42c19.61,0,34.8-6.01,45.57-18.04    c10.76-12.02,16.14-28.48,16.14-49.37V-5042.72z"
   id="path61" />
		<path
   class="st1"
   d="M4522.98-5519.33v263.94c32.91-53.17,80.7-79.75,143.37-79.75c60.13,0,109.81,21.84,149.06,65.51    c39.24,43.67,58.87,103.49,58.87,179.44c0,67.74-18.84,125.97-56.49,174.7c-37.67,48.75-87.82,73.11-150.48,73.11    c-63.94,0-112.03-26.9-144.32-80.7v75.01h-138.62v-671.25H4522.98z M4629.32-4958.21c29.11,0,53.79-11.87,74.06-35.61    c20.25-23.73,30.38-54.91,30.38-93.52c0-41.77-9.97-74.37-29.91-97.79c-19.94-23.41-44.48-35.13-73.58-35.13    c-29.12,0-54.28,11.08-75.48,33.23c-21.21,22.16-31.81,53.17-31.81,93.04c0,41.15,9.81,74.06,29.43,98.74    C4572.03-4970.56,4597.66-4958.21,4629.32-4958.21z"
   id="path63" />
		<path
   id="XMLID_57_"
   class="st0"
   d="M2817.93-5513.73H2581.6v671.34h236.33c214.01,0,346.53-118.47,346.53-334.68    C3164.47-5395.25,3035.26-5513.73,2817.93-5513.73z M2818.16-4991.04h-70.83v-374.03h70.83c103.18,0,173.04,67.71,173.04,188.09    C2991.2-5058.76,2921.34-4991.04,2818.16-4991.04z" />
		<polygon
   id="XMLID_56_"
   class="st0"
   points="31.9,-5366.78 211.63,-5366.78 211.63,-4842.38 390.21,-4842.38 390.21,-5366.78     569.95,-5366.78 569.95,-5513.73 31.9,-5513.73   " />
		<rect
   id="XMLID_55_"
   x="3241.06"
   y="-5513.73"
   class="st0"
   width="178.58"
   height="671.35" />
		<path
   id="XMLID_52_"
   class="st0"
   d="M2111.51-5513.73l-259.11,671.35h178.58l35.41-91.74h228.56l35.41,91.74h178.58    l-259.11-671.35H2111.51z M2118.99-5070.45l61.67-177.45l61.67,177.45H2118.99z" />
		<polygon
   id="XMLID_51_"
   class="st0"
   points="645.85,-4843.87 645.85,-4842.38 1101.4,-4842.38 1101.4,-4989.34 824.43,-4989.34     824.43,-5112.9 1092.48,-5112.9 1092.48,-5259.85 824.43,-5259.85 824.43,-5368.26 1101.4,-5368.26 1101.4,-5515.21     645.85,-5515.21   " />
		<path
   id="XMLID_50_"
   class="st0"
   d="M1682.72-5102.57c-30.8,56.74-90.9,95.27-160.01,95.27c-100.48,0-181.94-81.46-181.94-181.94    c0-100.49,81.46-181.95,181.94-181.95c69.11,0,129.21,38.53,160.01,95.28h175.49c-38.54-149.54-173.92-260.19-335.5-260.19    c-191.56,0-346.86,155.29-346.86,346.86c0,191.56,155.29,346.86,346.86,346.86c161.58,0,296.96-110.64,335.5-260.19H1682.72z" />
		<rect
   id="XMLID_49_"
   x="3630.4"
   y="-5513.73"
   class="st1"
   width="146.72"
   height="671.35" />
		<circle
   class="st1"
   cx="3525.02"
   cy="-4910.06"
   r="67.68"
   id="circle72" />
		<g
   id="g76">
			<path
   class="st1"
   d="M5262.72-5312.42v118.46c-33.49-19.58-72.66-29.38-117.51-29.38c-16.44,0-29.07,3.32-37.91,9.95     c-8.85,6.63-13.27,15.01-13.27,25.11c0,5.69,1.57,11.06,4.74,16.11c3.15,5.06,8.37,9.8,15.64,14.22     c7.26,4.43,14.22,8.38,20.85,11.84c6.63,3.48,15.78,7.75,27.48,12.79c11.68,5.06,21,9.48,27.96,13.27     c29.05,15.16,52.43,32.69,70.13,52.59c17.68,19.9,26.54,45.34,26.54,76.29c0,47.38-17.06,84.03-51.17,109.93     c-34.12,25.91-79.29,38.85-135.51,38.85c-58.13,0-106.77-9.79-145.94-29.38v-123.19c43.59,30.32,89.7,45.49,138.36,45.49     c34.74,0,52.12-11.05,52.12-33.17c0-5.69-1.58-11.05-4.74-16.11c-3.17-5.05-8.53-9.79-16.11-14.22     c-7.58-4.41-14.54-8.05-20.85-10.9c-6.32-2.84-15.49-6.78-27.48-11.85c-12.01-5.05-21.17-9.15-27.48-12.32     c-63.82-30.32-95.71-75.81-95.71-136.46c0-46.75,17.84-83.07,53.54-108.98c35.69-25.9,80.08-38.85,133.15-38.85     C5188.8-5332.32,5229.86-5325.69,5262.72-5312.42z"
   id="path74" />
		</g>
	</g>
</g>
<g
   id="g108"
   transform="translate(-5571.7806,2734.1629)">
	<polygon
   class="st2"
   points="2705.51,-3049.16 2828.75,-3076.43 2843.04,-3051.69 2978.26,-3051.69 3045.87,-3168.8 2978.26,-3285.91 2843.04,-3285.91 2804.77,-3219.62 2208.87,-3087.78 2194.59,-3112.52 2059.37,-3112.52 1991.75,-2995.41 2059.37,-2878.31 2194.59,-2878.31 2232.86,-2944.59 2560.51,-3017.08 2560.51,-2105.74 2497.78,-1997.1 2565.4,-1879.99 2700.62,-1879.99 2768.23,-1997.1 2705.51,-2105.74 "
   id="polygon82" />
	<polygon
   class="st2"
   points="3491.73,-1911.28 3477.34,-1886.35 2999.87,-1990.95 2999.87,-2713.65 3062.59,-2822.3 2994.98,-2939.41 2859.76,-2939.41 2792.15,-2822.3 2854.87,-2713.65 2854.87,-1684.94 2999.87,-1684.94 2999.87,-1842.52 3453.59,-1743.12 3491.73,-1677.07 3626.96,-1677.07 3694.57,-1794.17 3626.96,-1911.28 "
   id="polygon84" />
	<path
   class="st2"
   d="m 4408.4,-1091.02 c -33.56,-29.43 -84.5,-44.15 -152.86,-44.15 -71.53,0 -126.28,10.77 -164.26,32.28 v 124.38 c 44.3,-29.11 92.41,-43.67 144.32,-43.67 53.79,0 80.7,20.26 80.7,60.76 v 33.23 h -60.76 c -66.46,0 -116.63,12.82 -150.49,38.45 -33.87,25.64 -50.8,61.56 -50.8,107.76 0,39.88 13.13,73.11 39.4,99.69 26.26,26.59 62.81,39.88 109.66,39.88 59.49,0 99.36,-20.56 119.63,-61.72 v 58.87 h 135.77 v -308.57 c 0.01,-62.02 -16.76,-107.76 -50.31,-137.19 z m -92.09,283.41 c 0,20.89 -5.38,37.35 -16.14,49.37 -10.77,12.03 -25.96,18.04 -45.57,18.04 -37.35,0 -56.02,-16.14 -56.02,-48.42 0,-15.81 6.32,-28.79 18.99,-38.93 12.65,-10.12 30.69,-15.19 54.12,-15.19 h 44.62 v 35.13 z"
   id="path86" />
	<path
   class="st2"
   d="m 4849.88,-1135.17 c -62.66,0 -110.46,26.59 -143.37,79.75 v -263.94 H 4567.9 v 671.25 h 138.62 v -75.01 c 32.28,53.8 80.38,80.7 144.32,80.7 62.66,0 112.82,-24.36 150.48,-73.11 37.65,-48.73 56.49,-106.96 56.49,-174.7 0,-75.96 -19.63,-135.77 -58.86,-179.44 -39.26,-43.66 -88.94,-65.5 -149.07,-65.5 z m 37.03,341.33 c -20.26,23.74 -44.95,35.61 -74.06,35.61 -31.66,0 -57.29,-12.34 -76.9,-37.03 -19.63,-24.69 -29.43,-57.59 -29.43,-98.74 0,-39.88 10.59,-70.88 31.81,-93.04 21.2,-22.15 46.36,-33.23 75.48,-33.23 29.1,0 53.64,11.72 73.58,35.13 19.94,23.42 29.91,56.02 29.91,97.79 -0.01,38.6 -10.14,69.77 -30.39,93.51 z"
   id="path88" />
	<path
   class="st2"
   d="m 3001.47,-1313.75 h -236.33 v 671.34 h 236.33 c 214.01,0 346.53,-118.47 346.53,-334.68 0,-218.18 -129.2,-336.66 -346.53,-336.66 z m 0.22,522.68 h -70.83 v -374.03 h 70.83 c 103.18,0 173.04,67.7 173.04,188.09 0,118.23 -69.86,185.94 -173.04,185.94 z"
   id="path90" />
	<polygon
   class="st2"
   points="395.17,-1166.8 395.17,-642.41 573.75,-642.41 573.75,-1166.8 753.48,-1166.8 753.48,-1313.75 215.43,-1313.75 215.43,-1166.8 "
   id="polygon92" />
	<rect
   x="3424.5901"
   y="-1313.75"
   class="st2"
   width="178.58"
   height="671.34998"
   id="rect94" />
	<path
   class="st2"
   d="m 2295.04,-1313.75 -259.11,671.35 h 178.58 l 35.41,-91.74 h 228.56 l 35.41,91.74 h 178.58 l -259.11,-671.35 z m 7.49,443.28 61.67,-177.45 61.67,177.45 z"
   id="path96" />
	<polygon
   class="st2"
   points="829.38,-642.41 1284.94,-642.41 1284.94,-789.36 1007.96,-789.36 1007.96,-912.92 1276.02,-912.92 1276.02,-1059.87 1007.96,-1059.87 1007.96,-1168.28 1284.94,-1168.28 1284.94,-1315.24 829.38,-1315.24 829.38,-643.89 "
   id="polygon98" />
	<path
   class="st2"
   d="m 1866.25,-902.59 c -30.8,56.74 -90.9,95.27 -160.01,95.27 -100.48,0 -181.94,-81.46 -181.94,-181.94 0,-100.49 81.46,-181.95 181.94,-181.95 69.11,0 129.21,38.53 160.01,95.28 h 175.49 c -38.54,-149.54 -173.92,-260.19 -335.5,-260.19 -191.56,0 -346.86,155.29 -346.86,346.86 0,191.56 155.29,346.86 346.86,346.86 161.58,0 296.96,-110.64 335.5,-260.19 h -175.49 z"
   id="path100" />
	<rect
   x="3813.9399"
   y="-1313.75"
   class="st2"
   width="146.72"
   height="671.34998"
   id="rect102" />
	<circle
   class="st2"
   cx="3708.55"
   cy="-710.08002"
   r="67.68"
   id="circle104" />
	<path
   class="st2"
   d="m 5444.36,-867.47 c -17.69,-19.9 -41.07,-37.43 -70.13,-52.59 -6.96,-3.79 -16.27,-8.2 -27.96,-13.27 -11.7,-5.05 -20.85,-9.31 -27.48,-12.79 -6.63,-3.46 -13.59,-7.42 -20.85,-11.84 -7.27,-4.41 -12.48,-9.15 -15.64,-14.22 -3.17,-5.05 -4.74,-10.42 -4.74,-16.11 0,-10.1 4.41,-18.48 13.27,-25.11 8.84,-6.63 21.47,-9.95 37.91,-9.95 44.85,0 84.02,9.8 117.51,29.38 v -118.46 c -32.86,-13.27 -73.92,-19.9 -123.19,-19.9 -53.07,0 -97.46,12.96 -133.15,38.85 -35.7,25.91 -53.54,62.23 -53.54,108.98 0,60.65 31.9,106.14 95.71,136.46 6.31,3.17 15.47,7.27 27.48,12.32 11.99,5.07 21.16,9 27.48,11.85 6.31,2.84 13.27,6.49 20.85,10.9 7.58,4.43 12.94,9.17 16.11,14.22 3.15,5.06 4.74,10.42 4.74,16.11 0,22.12 -17.38,33.17 -52.12,33.17 -48.66,0 -94.77,-15.16 -138.36,-45.49 v 123.19 c 39.17,19.59 87.81,29.38 145.94,29.38 56.22,0 101.4,-12.94 135.51,-38.85 34.12,-25.9 51.17,-62.54 51.17,-109.93 0.01,-30.96 -8.84,-56.4 -26.52,-76.3 z"
   id="path106" />
</g>


<g
   id="g148">
	<polygon
   points="2904.27,4875.65 3099.7,4832.41 3122.35,4871.63 3336.78,4871.63 3443.99,4685.94 3336.78,4500.24    3122.35,4500.24 3061.67,4605.35 2116.76,4814.41 2094.12,4775.18 1879.69,4775.18 1772.48,4960.88 1879.69,5146.57    2094.12,5146.57 2154.8,5041.47 2674.36,4926.51 2674.36,6371.63 2574.89,6543.91 2682.1,6729.61 2896.53,6729.61 3003.74,6543.91    2904.27,6371.63  "
   id="polygon144" />
	<polygon
   points="4365.42,6679.99 4150.99,6679.99 4128.17,6719.51 3371.04,6553.66 3371.04,5407.66 3470.51,5235.38    3363.29,5049.68 3148.87,5049.68 3041.66,5235.38 3141.12,5407.66 3141.12,7038.9 3371.04,7038.9 3371.04,6789.02 4090.51,6946.63    4150.99,7051.38 4365.42,7051.38 4472.63,6865.68  "
   id="polygon146" />
</g>
<g
   id="g154">
	<polygon
   class="st2"
   points="-927.28,4875.65 -731.85,4832.41 -709.2,4871.63 -494.78,4871.63 -387.56,4685.94 -494.78,4500.24    -709.2,4500.24 -769.88,4605.35 -1714.79,4814.41 -1737.44,4775.18 -1951.86,4775.18 -2059.07,4960.88 -1951.86,5146.57    -1737.44,5146.57 -1676.75,5041.47 -1157.2,4926.51 -1157.2,6371.63 -1256.66,6543.91 -1149.45,6729.61 -935.03,6729.61    -827.81,6543.91 -927.28,6371.63  "
   id="polygon150" />
	<polygon
   class="st2"
   points="533.86,6679.99 319.44,6679.99 296.62,6719.51 -460.51,6553.66 -460.51,5407.66 -361.05,5235.38    -468.26,5049.68 -682.68,5049.68 -789.9,5235.38 -690.43,5407.66 -690.43,7038.9 -460.51,7038.9 -460.51,6789.03 258.96,6946.63    319.44,7051.38 533.86,7051.38 641.08,6865.68  "
   id="polygon152" />
</g>
<g
   id="g182">
	<polygon
   points="-8036.84,-2838.58 -7928.52,-2862.55 -7915.96,-2840.81 -7797.12,-2840.81 -7737.69,-2943.73 -7797.12,-3046.66    -7915.96,-3046.66 -7949.6,-2988.4 -8473.33,-2872.52 -8485.88,-2894.27 -8604.73,-2894.27 -8664.15,-2791.34 -8604.73,-2688.42    -8485.88,-2688.42 -8452.25,-2746.67 -8164.27,-2810.39 -8164.27,-2009.41 -8219.4,-1913.92 -8159.98,-1810.99 -8041.13,-1810.99    -7981.71,-1913.92 -8036.84,-2009.41  "
   id="polygon156" />
	<polygon
   points="-7345.83,-1838.5 -7358.48,-1816.59 -7778.13,-1908.52 -7778.13,-2543.7 -7722.99,-2639.19 -7782.42,-2742.12    -7901.27,-2742.12 -7960.69,-2639.19 -7905.56,-2543.7 -7905.56,-1639.57 -7778.13,-1639.57 -7778.13,-1778.06 -7379.35,-1690.7    -7345.83,-1632.65 -7226.98,-1632.65 -7167.55,-1735.57 -7226.98,-1838.5  "
   id="polygon158" />
	<path
   d="M-3351.02-2429.17c-29.52-25.89-74.34-38.84-134.48-38.84c-62.93,0-111.09,9.47-144.5,28.4v109.42   c38.97-25.61,81.3-38.42,126.96-38.42c47.32,0,71,17.82,71,53.46v29.24h-53.46c-58.47,0-102.61,11.27-132.39,33.83   c-29.8,22.55-44.69,54.16-44.69,94.8c0,35.08,11.55,64.31,34.67,87.7c23.1,23.39,55.26,35.08,96.47,35.08   c52.33,0,87.42-18.09,105.24-54.3v51.79h119.44v-271.46C-3306.75-2363.04-3321.51-2403.28-3351.02-2429.17z M-3432.04-2179.84   c0,18.38-4.74,32.86-14.2,43.43c-9.47,10.58-22.84,15.87-40.09,15.87c-32.86,0-49.28-14.2-49.28-42.6   c0-13.91,5.56-25.33,16.71-34.25c11.13-8.9,27-13.36,47.61-13.36h39.26V-2179.84z"
   id="path160" />
	<path
   d="M-2962.63-2468.01c-55.13,0-97.18,23.39-126.13,70.16v-232.2h-121.95v590.53h121.95v-65.99c28.4,47.33,70.71,71,126.96,71   c55.13,0,99.25-21.43,132.39-64.31c33.12-42.87,49.7-94.1,49.7-153.69c0-66.82-17.27-119.44-51.79-157.87   C-2866.02-2448.8-2909.73-2468.01-2962.63-2468.01z M-2930.05-2167.73c-17.83,20.88-39.54,31.32-65.15,31.32   c-27.85,0-50.4-10.86-67.66-32.58c-17.27-21.72-25.89-50.67-25.89-86.87c0-35.08,9.32-62.36,27.98-81.86   c18.65-19.49,40.78-29.24,66.4-29.24c25.6,0,47.19,10.31,64.73,30.9c17.54,20.61,26.31,49.28,26.31,86.03   C-2903.32-2216.03-2912.23-2188.61-2930.05-2167.73z"
   id="path162" />
	<path
   d="M-4588.77-2625.12h-207.91v590.61h207.91c188.28,0,304.86-104.22,304.86-294.44   C-4283.91-2520.89-4397.57-2625.12-4588.77-2625.12z M-4588.57-2165.29h-62.32v-329.05h62.32c90.77,0,152.23,59.56,152.23,165.47   C-4436.34-2224.86-4497.8-2165.29-4588.57-2165.29z"
   id="path164" />
	<polygon
   points="-7039.78,-2495.84 -6881.66,-2495.84 -6881.66,-2034.51 -6724.55,-2034.51 -6724.55,-2495.84 -6566.43,-2495.84    -6566.43,-2625.12 -7039.78,-2625.12  "
   id="polygon166" />
	<rect
   x="-4216.53"
   y="-2625.12"
   width="157.1"
   height="590.62"
   id="rect168" />
	<path
   d="M-5210.25-2625.12l-227.95,590.62h157.1l31.15-80.71h201.08l31.15,80.71h157.1l-227.95-590.62H-5210.25z M-5203.66-2235.15   l54.25-156.11l54.25,156.11H-5203.66z"
   id="path170" />
	<polygon
   points="-6499.66,-2035.81 -6499.66,-2034.51 -6098.88,-2034.51 -6098.88,-2163.79 -6342.55,-2163.79 -6342.55,-2272.49    -6106.73,-2272.49 -6106.73,-2401.77 -6342.55,-2401.77 -6342.55,-2497.14 -6098.88,-2497.14 -6098.88,-2626.43 -6499.66,-2626.43     "
   id="polygon172" />
	<path
   d="M-5587.47-2263.4c-27.1,49.92-79.97,83.82-140.77,83.82c-88.4,0-160.06-71.66-160.06-160.06   c0-88.4,71.66-160.07,160.06-160.07c60.8,0,113.67,33.9,140.77,83.82h154.38c-33.91-131.56-153-228.9-295.15-228.9   c-168.53,0-305.15,136.62-305.15,305.15c0,168.53,136.62,305.15,305.15,305.15c142.15,0,261.25-97.34,295.16-228.9H-5587.47z"
   id="path174" />
	<rect
   x="-3874"
   y="-2625.12"
   width="129.08"
   height="590.62"
   id="rect176" />
	<circle
   cx="-3966.71"
   cy="-2094.04"
   r="59.54"
   id="circle178" />
	<path
   d="M-2439.64-2232.51c-15.57-17.51-36.13-32.93-61.69-46.27c-6.12-3.34-14.32-7.22-24.59-11.67   c-10.29-4.44-18.34-8.19-24.18-11.26c-5.84-3.05-11.96-6.53-18.34-10.42c-6.4-3.88-10.98-8.05-13.76-12.51   c-2.79-4.44-4.17-9.17-4.17-14.17c0-8.88,3.88-16.26,11.67-22.09c7.78-5.84,18.89-8.75,33.35-8.75c39.46,0,73.91,8.62,103.38,25.84   v-104.21c-28.91-11.67-65.03-17.51-108.38-17.51c-46.69,0-85.74,11.4-117.13,34.18c-31.41,22.8-47.1,54.75-47.1,95.88   c0,53.36,28.06,93.37,84.2,120.05c5.55,2.79,13.61,6.4,24.18,10.84c10.55,4.46,18.62,7.92,24.18,10.42   c5.55,2.5,11.67,5.71,18.34,9.59c6.67,3.9,11.39,8.06,14.17,12.51c2.77,4.45,4.17,9.17,4.17,14.17c0,19.46-15.29,29.18-45.85,29.18   c-42.8,0-83.37-13.34-121.72-40.02v108.38c34.46,17.23,77.25,25.85,128.39,25.85c49.46,0,89.21-11.39,119.22-34.18   c30.01-22.78,45.02-55.02,45.02-96.71C-2416.29-2192.62-2424.08-2215-2439.64-2232.51z"
   id="path180" />
</g>
</svg>
