<?xml version="1.0" encoding="UTF-8"?>
<svg id="Layer_2" data-name="Layer 2" xmlns="http://www.w3.org/2000/svg" viewBox="0 0 12.84 12.84">
  <defs>
    <style>
      .cls-1 {
        fill: #d0d2d3;
      }
    </style>
  </defs>
  <g id="Layer_1-2" data-name="Layer 1">
    <g>
      <circle class="cls-1" cx="9.82" cy="3.05" r=".75"/>
      <path class="cls-1" d="M6.47,3.26c-1.74,0-3.16,1.42-3.16,3.16s1.42,3.16,3.16,3.16,3.16-1.42,3.16-3.16-1.42-3.16-3.16-3.16ZM6.47,8.44c-1.12,0-2.03-.91-2.03-2.03s.91-2.03,2.03-2.03,2.03.91,2.03,2.03-.91,2.03-2.03,2.03Z"/>
      <path class="cls-1" d="M8.98,12.84H3.86c-2.13,0-3.86-1.73-3.86-3.86V3.86C0,1.73,1.73,0,3.86,0h5.13c2.13,0,3.86,1.73,3.86,3.86v5.13c0,2.13-1.73,3.86-3.86,3.86ZM3.86,1.21c-1.46,0-2.65,1.19-2.65,2.65v5.13c0,1.46,1.19,2.65,2.65,2.65h5.13c1.46,0,2.65-1.19,2.65-2.65V3.86c0-1.46-1.19-2.65-2.65-2.65H3.86Z"/>
    </g>
  </g>
</svg>