<?xml version="1.0" encoding="UTF-8"?>
<svg id="Layer_2" data-name="Layer 2" xmlns="http://www.w3.org/2000/svg" viewBox="0 0 12.84 12.84">
  <defs>
    <style>
      .cls-1 {
        fill: #d0d2d3;
      }
    </style>
  </defs>
  <g id="Layer_1-2" data-name="Layer 1">
    <g>
      <path class="cls-1" d="M8.98,12.84H3.86c-2.13,0-3.86-1.73-3.86-3.86V3.86C0,1.73,1.73,0,3.86,0h5.13c2.13,0,3.86,1.73,3.86,3.86v5.13c0,2.13-1.73,3.86-3.86,3.86ZM3.86,1.21c-1.46,0-2.65,1.19-2.65,2.65v5.13c0,1.46,1.19,2.65,2.65,2.65h5.13c1.46,0,2.65-1.19,2.65-2.65V3.86c0-1.46-1.19-2.65-2.65-2.65H3.86Z"/>
      <g>
        <path class="cls-1" d="M4.77,4.1c0,.36-.23.66-.66.66-.4,0-.66-.3-.66-.63,0-.36.26-.69.66-.69s.66.3.66.66Z"/>
        <rect class="cls-1" x="3.44" y="5.1" width="1.32" height="4.3"/>
        <path class="cls-1" d="M7.94,5.16c-.69,0-1.09.4-1.26.66h-.03l-.07-.56h-1.19c0,.36.03.79.03,1.29v2.84h1.32v-2.35c0-.13,0-.23.03-.33.1-.23.26-.53.63-.53.46,0,.66.4.66.93v2.28h1.32v-2.45c0-1.22-.63-1.79-1.45-1.79Z"/>
      </g>
    </g>
  </g>
</svg>