<?xml version="1.0" encoding="UTF-8"?>
<svg id="Layer_2" data-name="Layer 2" xmlns="http://www.w3.org/2000/svg" viewBox="0 0 12.38 15.93">
  <defs>
    <style>
      .cls-1 {
        fill: #d0d2d3;
      }
    </style>
  </defs>
  <g id="Layer_1-2" data-name="Layer 1">
    <g>
      <path class="cls-1" d="M6.19,15.93h0c-.15,0-.3-.06-.41-.18-.24-.25-5.79-6.27-5.79-9.56S2.78,0,6.19,0s6.19,2.78,6.19,6.19-5.55,9.3-5.79,9.56c-.1.11-.25.18-.41.18ZM6.19,1.11C3.39,1.11,1.11,3.39,1.11,6.19c0,2.19,3.36,6.42,5.08,8.36,1.72-1.94,5.08-6.17,5.08-8.36,0-2.8-2.28-5.08-5.08-5.08Z"/>
      <path class="cls-1" d="M6.19,8.71c-1.54,0-2.79-1.25-2.79-2.79s1.25-2.79,2.79-2.79,2.79,1.25,2.79,2.79-1.25,2.79-2.79,2.79ZM6.19,4.24c-.93,0-1.68.75-1.68,1.68s.75,1.68,1.68,1.68,1.68-.75,1.68-1.68-.75-1.68-1.68-1.68Z"/>
    </g>
  </g>
</svg>