<?xml version="1.0" encoding="UTF-8"?>
<svg xmlns="http://www.w3.org/2000/svg" xmlns:xlink="http://www.w3.org/1999/xlink" viewBox="0 0 28.5 26.53">
  <defs>
    <style>
      .cls-1 {
        fill: #dee0e4;
      }

      .cls-2 {
        fill: url(#Gradiente_sem_nome_22-2);
      }

      .cls-3, .cls-4 {
        fill: #868894;
      }

      .cls-5 {
        fill: #fff;
      }

      .cls-6 {
        isolation: isolate;
      }

      .cls-7 {
        fill: #18a6ca;
      }

      .cls-8 {
        fill: url(#Gradiente_sem_nome_15);
      }

      .cls-9 {
        fill: url(#Gradiente_sem_nome_22);
      }

      .cls-10 {
        fill: url(#Gradiente_sem_nome_14);
        mix-blend-mode: overlay;
        opacity: .4;
      }

      .cls-11 {
        fill: url(#Gradiente_sem_nome_18);
        mix-blend-mode: screen;
        opacity: .35;
      }

      .cls-12 {
        fill: #20224b;
      }

      .cls-13 {
        fill: #193b68;
      }

      .cls-4 {
        mix-blend-mode: multiply;
      }
    </style>
    <radialGradient id="Gradiente_sem_nome_15" data-name="Gradiente sem nome 15" cx="104.26" cy="180.32" fx="104.26" fy="180.32" r="12.01" gradientTransform="translate(-95.9 -178.25) scale(1.06)" gradientUnits="userSpaceOnUse">
      <stop offset="0" stop-color="#fff"/>
      <stop offset=".19" stop-color="#f6f6f8"/>
      <stop offset=".49" stop-color="#dde0e8"/>
      <stop offset=".87" stop-color="#b6bccd"/>
      <stop offset="1" stop-color="#a7afc3"/>
    </radialGradient>
    <radialGradient id="Gradiente_sem_nome_22" data-name="Gradiente sem nome 22" cx="104.06" cy="181.66" fx="104.06" fy="181.66" r="12.58" gradientTransform="translate(-95.9 -159.01) scale(1.06 .95)" gradientUnits="userSpaceOnUse">
      <stop offset="0" stop-color="#d5e8ee"/>
      <stop offset=".06" stop-color="#cfe5ec"/>
      <stop offset=".15" stop-color="#bedfe9"/>
      <stop offset=".24" stop-color="#a3d6e4"/>
      <stop offset=".34" stop-color="#7dc8dd"/>
      <stop offset=".45" stop-color="#4db6d3"/>
      <stop offset=".57" stop-color="#12a1c8"/>
      <stop offset=".6" stop-color="#009bc5"/>
      <stop offset=".83" stop-color="#077ba8"/>
      <stop offset="1" stop-color="#0e6090"/>
    </radialGradient>
    <radialGradient id="Gradiente_sem_nome_22-2" data-name="Gradiente sem nome 22" cx="95.06" cy="189.75" fx="95.06" fy="189.75" r=".03" gradientTransform="translate(-95.9 -158.15) scale(1.06 .95)" xlink:href="#Gradiente_sem_nome_22"/>
    <radialGradient id="Gradiente_sem_nome_18" data-name="Gradiente sem nome 18" cx="104.47" cy="176.92" fx="104.47" fy="176.92" r="9.94" gradientTransform="translate(-95.9 -178.25) scale(1.06)" gradientUnits="userSpaceOnUse">
      <stop offset="0" stop-color="#fff"/>
      <stop offset="1" stop-color="#006d9e"/>
    </radialGradient>
    <linearGradient id="Gradiente_sem_nome_14" data-name="Gradiente sem nome 14" x1="21.66" y1="10.31" x2="1.61" y2="10.31" gradientUnits="userSpaceOnUse">
      <stop offset="0" stop-color="#fff"/>
      <stop offset="1" stop-color="#8682a4"/>
    </linearGradient>
  </defs>
  <g class="cls-6">
    <g id="Layer_2" data-name="Layer 2">
      <g id="Layer_1-2" data-name="Layer 1">
        <g>
          <path class="cls-8" d="M27.24,12.72c0,4.97-2.85,9.28-7.01,11.37-1.72.87-3.66,1.35-5.71,1.35s-3.86-.45-5.53-1.26c-.17-.08-.57-.16-.73-.24-1.66-.9-2.86-2.16-3.97-3.67-1.46-1.97-2.36-4.38-2.47-6.99-.01-.18-.01-.37-.01-.56,0-1.02.12-2.01.35-2.96.06-.27.14-.53.22-.79.89-2.91,2.81-5.37,5.32-6.98,1.97-1.26,4.32-1.99,6.84-1.99,3.48,0,6.63,1.4,8.93,3.66,2.28,2.25,3.72,5.35,3.78,8.79,0,.09,0,.18,0,.27"/>
          <path class="cls-1" d="M22.83,5.13C19.08.54,12.31-.14,7.72,3.62c-.43.35-.82.73-1.18,1.13h8.37v17.92c2.27-.08,4.52-.87,6.41-2.42,4.59-3.75,5.27-10.52,1.51-15.11Z"/>
          <path class="cls-4" d="M22.89,11.15c-.01.1-.03.2-.04.3-.64,4.5-2.21,10.41-4.22,13.31.55-.19,1.09-.41,1.61-.67,1.79-3.05,3.18-8.37,3.78-12.53-.36-.14-.73-.27-1.13-.4"/>
          <g>
            <path class="cls-9" d="M26.64,6.08c-.71-1.17-3.76-2.51-8.15-3.42-6.08-1.26-12.43-1.21-14.16.11-.06.04-.11.09-.16.13C3.59,3.48,1.3,6.15.11,10.54c.61-1.22,3.74-1.69,6.05-1.79,3.22-.13,7.16.35,7.16.35,0,0-.53,4.11-1.68,8.15-1.44,5.05-4.11,7.85-5.54,7.47.03.02.07.03.1.04,2.2.73,6.67,1.63,9.98,1.76,3.16.12,5.68-8.4,6.76-15.37,3.75,1.16,5.59,2.55,5.46,3.69.51-4.39-1.03-7.34-1.76-8.76Z"/>
            <path class="cls-2" d="M4.79,22.75s-.02-.05-.03-.08c0,.03.02.05.03.08Z"/>
          </g>
          <path class="cls-5" d="M13.32,9.11c-1.34-.26-5.15-.9-8.54-.58C-.05,8.99.11,10.64.08,10.81c.05-.28.18-.6.54-.78,3.38-1.66,12.7-.93,12.7-.93Z"/>
          <g>
            <path class="cls-3" d="M6.42,21.65c-1.14.04-1.94-1.12-1.94-1.12.04.11.09.22.15.32,0-.03.01-.06.02-.09,3.6,4.77,6.85-6.45,7.41-10.38.01-.1.03-.2.04-.3-3.84-.45-10.11-1.3-10.28,2.47,0,0,0,0,0,0,0,.06,0,.11,0,.17,0,.07,0,.15,0,.22,0,0,0,0,0,0h0s0,0,0,0c0,.05,0,.1,0,.14.02-.74.42-3.28,5.19-3.12,1.6.05,3.35.21,4.75.38h.02c-.55,3.85-2.94,11.24-5.35,11.31Z"/>
            <path class="cls-3" d="M1.81,13.29c0-.07,0-.14,0-.2,0,.13,0,.2,0,.2Z"/>
          </g>
          <g>
            <path class="cls-5" d="M6.14,24.74s0,0,0,0c0,0,.02,0,.02,0-.01,0-.02,0-.03,0Z"/>
            <path class="cls-5" d="M11.64,17.26c-1.35,4.72-3.76,7.47-5.24,7.5,1.4.03,2.89-1.61,3.73-3.14,2.13-3.83,2.89-8.59,3.19-12.52,0,0-.53,4.11-1.68,8.15Z"/>
          </g>
          <g>
            <polygon class="cls-12" points="1.8 12.94 1.81 12.95 1.81 12.95 1.8 12.94"/>
            <path class="cls-13" d="M12.09,10.09c-.01.1-.03.2-.04.3-.56,3.93-3.81,15.15-7.41,10.38-.07.31-.15,1.24.2,2.12.28.71.89,1.37,1.7,1.47.7.08,3.15-1.89,4.65-6.71.78-2.5,1.33-5.21,1.76-8.18-1.75-.2-3.96-.41-6.1-.36-3.19.07-5.86.57-6.41,1.6-.3.57.6,1.35,1.37,1.85.17-3.78,6.45-2.93,10.28-2.47Z"/>
          </g>
          <path class="cls-5" d="M28.36,14.41c-.14-1.34-3.32-2.94-5.42-3.25,4.26,1.39,5.22,2.62,5.42,3.25Z"/>
          <path class="cls-13" d="M22.89,11.44c-.06.35-.11.7-.18,1.05h0c4.91,1.7,4.13,3.39,4.13,3.38.77-.24,1.2-.8,1.26-.99.19-.59-.86-2.02-5.22-3.44Z"/>
          <path class="cls-7" d="M13.32,9.11s-.53,4.11-1.68,8.15c-1.55,5.4-4.49,8.23-5.82,7.35-2.22-1.48-1.34-4.07-1.34-4.07.05.08.11.14.17.22-.07.3-.16,1.24.2,2.13.28.71.89,1.37,1.7,1.47.7.08,3.15-1.89,4.65-6.71.78-2.5,1.33-5.21,1.76-8.18-1.75-.2-3.96-.41-6.1-.36-3.19.07-5.86.57-6.41,1.6-.3.57.6,1.35,1.38,1.85,0,.05,0,.1,0,.16,0,.08,0,.15,0,.23-1.14-.67-1.81-1.34-1.81-1.96,0-1.56,3.58-2.13,6.16-2.23,3.22-.13,7.16.35,7.16.35ZM28.29,14.24c-.32-.67-1.46-1.8-5.35-3.08,0,0,0,0,0,0-.01.09-.03.18-.04.28,4.35,1.42,5.41,2.85,5.22,3.44-.06.19-.49.75-1.26.99-.03.11-.06.22-.09.32,1.05-.23,1.6-.99,1.64-1.34.02-.2-.02-.4-.11-.61ZM28.4,14.85s0-.05,0-.1c0,.03,0,.07,0,.1Z"/>
          <path class="cls-11" d="M20.24,3.38s-.04-.01-.06-.02c-.23-.06-.46-.11-.7-.17-.04,0-.07-.02-.11-.03-.28-.06-.56-.12-.85-.18-2.79-.58-5.74-.9-8.31-.9-.22,0-.43,0-.64,0-.06,0-.11,0-.17,0-.15,0-.3.01-.45.02-.05,0-.1,0-.15,0-.17,0-.34.02-.5.03-.01,0-.02,0-.04,0-.18.01-.36.03-.53.05,0,0-.01,0-.02,0h0c-1.46.16-2.34.46-2.72.75-.02.01-.04.03-.06.05-1.38,1.34-2.92,4.16-3.31,5.23,1.74-.61,4.22-.72,6.21-.76,2.77-.05,6.63.46,6.63.46,0,0-.03.29-.08.74-.11,1.03-.35,2.99-.71,5.03,1.36.87,2.87,1.54,4.47,1.98.98.25,2.02.4,3.11.46.42-1.65,1.24-6.53,1.24-6.53l.9.3c1.57.52,3.29,1.22,4.48,2.09-.14-2.88-1.17-4.9-1.74-6-.45-.7-2.45-1.76-5.89-2.63Z"/>
          <path class="cls-10" d="M20.18,3.37c-.23-.06-.46-.11-.7-.17-.04,0-.07-.02-.11-.03-.28-.06-.56-.12-.85-.18-2.79-.58-5.74-.9-8.31-.9-.22,0-.43,0-.64,0-.06,0-.11,0-.17,0-.15,0-.3.01-.45.02-.05,0-.1,0-.15,0-.17,0-.34.02-.5.03-.01,0-.02,0-.04,0-.18.01-.36.03-.53.05,0,0-.01,0-.02,0h0c-1.46.16-2.34.46-2.72.75-.02.01-.04.03-.06.05-1.38,1.34-2.92,4.16-3.31,5.23,1.74-.61,4.22-.72,6.21-.76,2.77-.05,6.63.46,6.63.46,0,0-.03.29-.08.74-.2,1.89-.83,6.93-1.89,9.83,1.69-.87,3.18-1.94,4.44-3.18,0,0,0,0,0,0,2.92-2.94,4.73-6.99,4.73-11.47,0-.03,0-.07,0-.1-.44-.13-.92-.27-1.42-.4-.02,0-.04-.01-.06-.02Z"/>
        </g>
      </g>
    </g>
  </g>
</svg>