<?xml version="1.0" encoding="UTF-8"?>
<svg id="Layer_2" data-name="Layer 2" xmlns="http://www.w3.org/2000/svg" viewBox="0 0 12.84 12.84">
  <defs>
    <style>
      .cls-1, .cls-2 {
        fill: #d0d2d3;
      }

      .cls-2 {
        fill-rule: evenodd;
      }
    </style>
  </defs>
  <g id="Layer_1-2" data-name="Layer 1">
    <g>
      <path class="cls-1" d="M8.98,12.84H3.86c-2.13,0-3.86-1.73-3.86-3.86V3.86C0,1.73,1.73,0,3.86,0h5.13c2.13,0,3.86,1.73,3.86,3.86v5.13c0,2.13-1.73,3.86-3.86,3.86ZM3.86,1.21c-1.46,0-2.65,1.19-2.65,2.65v5.13c0,1.46,1.19,2.65,2.65,2.65h5.13c1.46,0,2.65-1.19,2.65-2.65V3.86c0-1.46-1.19-2.65-2.65-2.65H3.86Z"/>
      <path class="cls-2" d="M6.32,7.23v4.45c0,.06.05.12.12.12h1.65c.06,0,.12-.05.12-.12v-4.53h1.2c.06,0,.11-.05.12-.11l.12-1.36c0-.07-.05-.13-.12-.13h-1.31v-.97c0-.23.18-.41.41-.41h.92c.06,0,.12-.05.12-.12v-1.36c0-.06-.05-.12-.12-.12h-1.56c-.92,0-1.66.74-1.66,1.66v1.31h-.83c-.06,0-.12.05-.12.12v1.36c0,.06.05.12.12.12h.83v.07Z"/>
    </g>
  </g>
</svg>