<?xml version="1.0" encoding="UTF-8"?>
<svg id="Layer_2" data-name="Layer 2" xmlns="http://www.w3.org/2000/svg" viewBox="0 0 13.32 13.37">
  <defs>
    <style>
      .cls-1 {
        fill: #d0d2d3;
        fill-rule: evenodd;
      }
    </style>
  </defs>
  <g id="Layer_1-2" data-name="Layer 1">
    <path class="cls-1" d="M11.37,1.94c-1.25-1.25-2.92-1.94-4.69-1.94C3.03,0,.06,2.97.05,6.63c0,1.17.31,2.31.89,3.31l-.94,3.44,3.52-.92c.97.53,2.06.81,3.17.81h0c3.65,0,6.63-2.97,6.63-6.63,0-1.77-.69-3.44-1.94-4.69ZM6.69,12.14c-.99,0-1.96-.27-2.81-.77l-.2-.12-2.09.55.56-2.03-.13-.21c-.55-.88-.84-1.89-.84-2.93C1.18,3.59,3.65,1.12,6.69,1.12c1.47,0,2.86.57,3.89,1.61,1.04,1.04,1.61,2.43,1.61,3.9,0,3.03-2.47,5.51-5.51,5.51ZM9.71,8.01c-.17-.08-.98-.48-1.13-.54-.15-.05-.26-.08-.37.08-.11.17-.43.54-.53.65-.1.11-.19.12-.36.04-.17-.08-.7-.26-1.33-.82-.49-.44-.82-.98-.92-1.15s0-.25.07-.34c.07-.07.17-.19.25-.29.08-.1.11-.17.17-.28s.03-.21-.01-.29c-.04-.08-.37-.9-.51-1.23-.13-.32-.27-.28-.37-.28-.1,0-.21,0-.32,0s-.29.04-.44.21c-.15.17-.58.57-.58,1.38s.59,1.6.68,1.71c.08.11,1.17,1.78,2.83,2.5.39.17.7.27.95.35.4.13.76.11,1.04.07.32-.05.98-.4,1.12-.79.14-.39.14-.72.1-.79-.05-.08-.16-.12-.32-.2Z"/>
  </g>
</svg>