<?xml version="1.0" encoding="UTF-8"?>
<svg id="Layer_2" data-name="Layer 2" xmlns="http://www.w3.org/2000/svg" viewBox="0 0 14.1 14.1">
  <defs>
    <style>
      .cls-1 {
        fill: #d0d2d3;
      }
    </style>
  </defs>
  <g id="Layer_1-2" data-name="Layer 1">
    <g id="Phone">
      <path class="cls-1" d="M14.06,6.27C12.82,3.42,10.6,1.21,7.79.03c-.23-.1-.5.02-.59.26-.09.24.02.52.25.61,2.58,1.08,4.63,3.12,5.78,5.75.08.17.24.28.42.28.06,0,.13-.01.19-.04.23-.11.33-.38.23-.62Z"/>
      <path class="cls-1" d="M7.21,3.42c1.57.65,2.81,1.89,3.5,3.48.07.17.23.27.4.27.06,0,.12-.01.18-.04.22-.1.32-.37.22-.6-.79-1.8-2.2-3.21-3.98-3.95-.23-.09-.48.02-.57.25-.09.23.02.5.24.59Z"/>
      <path class="cls-1" d="M11.66,8.91c-.25-.25-.53-.37-.81-.37s-.56.12-.81.37c-.38.38-.76.75-1.13,1.14-.06.06-.12.1-.18.1-.04,0-.08-.01-.13-.04-.25-.13-.51-.24-.74-.39-1.1-.69-2.02-1.58-2.84-2.59-.41-.5-.77-1.03-1.02-1.63-.05-.12-.04-.2.06-.3.38-.37.75-.74,1.12-1.12.52-.52.52-1.14,0-1.66-.3-.3-.59-.59-.89-.89-.31-.31-.61-.62-.92-.92-.25-.24-.53-.37-.81-.37-.28,0-.56.12-.81.37-.38.38-.75.76-1.14,1.13C.23,2.08.05,2.49.01,2.98c-.06.8.13,1.55.41,2.28.56,1.51,1.42,2.86,2.46,4.09,1.4,1.67,3.07,2.99,5.03,3.94.88.43,1.79.76,2.79.81.06,0,.12,0,.18,0,.61,0,1.14-.19,1.57-.67.33-.36.69-.7,1.04-1.04.51-.52.51-1.14,0-1.65-.61-.61-1.22-1.22-1.83-1.82ZM12.83,11.73c-.11.11-.23.23-.35.34-.24.23-.49.47-.72.74-.23.25-.49.36-.88.36-.04,0-.08,0-.13,0-.74-.04-1.49-.26-2.43-.72-1.81-.88-3.41-2.13-4.73-3.7-1.06-1.26-1.81-2.5-2.3-3.82-.29-.76-.39-1.34-.35-1.88.02-.28.11-.48.3-.65.24-.23.47-.46.71-.7.15-.15.3-.3.45-.45.08-.08.14-.1.16-.1s.08.02.17.1c.2.2.4.4.61.6l.3.31c.15.15.3.3.45.46.15.15.29.29.44.44.17.17.16.2,0,.36l-.16.16c-.32.32-.63.64-.97.96-.36.36-.45.84-.26,1.31.26.62.63,1.21,1.15,1.86.96,1.18,1.97,2.09,3.07,2.79.18.11.37.2.53.28.09.04.18.09.25.13.19.11.39.16.59.16.22,0,.54-.07.84-.38.37-.37.74-.74,1.12-1.13.08-.08.14-.1.16-.1s.08.02.16.1c.61.61,1.22,1.21,1.82,1.82.14.14.15.19,0,.35Z"/>
    </g>
  </g>
</svg>