<?xml version="1.0" encoding="UTF-8"?>
<svg id="Layer_2" data-name="Layer 2" xmlns="http://www.w3.org/2000/svg" viewBox="0 0 15.99 10.82">
  <defs>
    <style>
      .cls-1 {
        fill: #d0d2d3;
      }
    </style>
  </defs>
  <g id="Layer_1-2" data-name="Layer 1">
    <path class="cls-1" d="M15.74.3s-.03-.03-.04-.05c0,0,0,0,0,0,0,0,0,0,0,0-.17-.16-.4-.25-.64-.25H.93c-.24,0-.46.09-.64.25,0,0,0,0,0,0,0,0,0,0,0,0-.02.01-.03.03-.04.05,0,0,0,0-.01.01-.15.17-.23.38-.23.61v8.97c0,.22.08.43.23.61.02.03.04.06.07.08.03.02.07.06.12.09.05.03.1.06.16.08,0,0,0,0,0,0,.04.02.1.04.16.05,0,0,0,0,.01,0,.05.01.1.01.16.01h14.13c.06,0,.11,0,.16-.01,0,0,0,0,.01,0,.07-.01.12-.03.16-.05,0,0,0,0,0,0,.06-.02.11-.05.14-.07h.02c.05-.04.09-.08.12-.1,0,0,0,0,0,0,0,0,0,0,.01-.01,0,0,.02-.02.03-.03,0,0,.01-.01.02-.02.15-.17.24-.39.24-.62V.93c0-.23-.09-.44-.23-.61,0,0,0,0-.01-.01ZM14.49.81l-6.28,5.47c-.12.11-.31.11-.43,0L1.49.81h13ZM.81,9.52V1.3l4.72,4.11L.81,9.52ZM8,10.01H1.49s4.66-4.06,4.66-4.06l1.09.95c.05.05.11.09.17.12,0,0,.02,0,.02.01.05.03.11.05.16.07.05.02.09.03.14.04.02,0,.04.01.06.01.33.06.68-.03.95-.26l1.09-.95,4.66,4.06h-6.49ZM15.17,9.52l-4.72-4.11L15.17,1.3v8.22Z"/>
  </g>
</svg>