<?xml version="1.0" encoding="UTF-8"?>
<svg xmlns="http://www.w3.org/2000/svg" xmlns:xlink="http://www.w3.org/1999/xlink" viewBox="0 0 160.48 26.53">
  <defs>
    <style>
      .cls-1 {
        fill: #dee0e4;
      }

      .cls-2 {
        fill: url(#Gradiente_sem_nome_22-2);
      }

      .cls-3, .cls-4 {
        fill: #868894;
      }

      .cls-5 {
        fill: #fff;
      }

      .cls-6 {
        isolation: isolate;
      }

      .cls-7 {
        fill: #18a6ca;
      }

      .cls-8 {
        fill: url(#Gradiente_sem_nome_15);
      }

      .cls-9 {
        fill: url(#Gradiente_sem_nome_22);
      }

      .cls-10 {
        fill: url(#Gradiente_sem_nome_14);
        mix-blend-mode: overlay;
        opacity: .4;
      }

      .cls-11 {
        fill: url(#Gradiente_sem_nome_18);
        mix-blend-mode: screen;
        opacity: .35;
      }

      .cls-12 {
        fill: #20224b;
      }

      .cls-13 {
        fill: #193b68;
      }

      .cls-4 {
        mix-blend-mode: multiply;
      }

      .cls-14 {
        fill: #16406d;
      }

      .cls-15 {
        fill: none;
        stroke: #16406d;
        stroke-miterlimit: 10;
        stroke-width: .75px;
      }
    </style>
    <radialGradient id="Gradiente_sem_nome_15" data-name="Gradiente sem nome 15" cx="104.26" cy="180.32" fx="104.26" fy="180.32" r="12.01" gradientTransform="translate(-95.9 -178.25) scale(1.06)" gradientUnits="userSpaceOnUse">
      <stop offset="0" stop-color="#fff"/>
      <stop offset=".19" stop-color="#f6f6f8"/>
      <stop offset=".49" stop-color="#dde0e8"/>
      <stop offset=".87" stop-color="#b6bccd"/>
      <stop offset="1" stop-color="#a7afc3"/>
    </radialGradient>
    <radialGradient id="Gradiente_sem_nome_22" data-name="Gradiente sem nome 22" cx="104.06" cy="181.66" fx="104.06" fy="181.66" r="12.58" gradientTransform="translate(-95.9 -159.01) scale(1.06 .95)" gradientUnits="userSpaceOnUse">
      <stop offset="0" stop-color="#d5e8ee"/>
      <stop offset=".06" stop-color="#cfe5ec"/>
      <stop offset=".15" stop-color="#bedfe9"/>
      <stop offset=".24" stop-color="#a3d6e4"/>
      <stop offset=".34" stop-color="#7dc8dd"/>
      <stop offset=".45" stop-color="#4db6d3"/>
      <stop offset=".57" stop-color="#12a1c8"/>
      <stop offset=".6" stop-color="#009bc5"/>
      <stop offset=".83" stop-color="#077ba8"/>
      <stop offset="1" stop-color="#0e6090"/>
    </radialGradient>
    <radialGradient id="Gradiente_sem_nome_22-2" data-name="Gradiente sem nome 22" cx="95.06" cy="189.75" fx="95.06" fy="189.75" r=".03" gradientTransform="translate(-95.9 -158.15) scale(1.06 .95)" xlink:href="#Gradiente_sem_nome_22"/>
    <radialGradient id="Gradiente_sem_nome_18" data-name="Gradiente sem nome 18" cx="104.47" cy="176.92" fx="104.47" fy="176.92" r="9.94" gradientTransform="translate(-95.9 -178.25) scale(1.06)" gradientUnits="userSpaceOnUse">
      <stop offset="0" stop-color="#fff"/>
      <stop offset="1" stop-color="#006d9e"/>
    </radialGradient>
    <linearGradient id="Gradiente_sem_nome_14" data-name="Gradiente sem nome 14" x1="21.66" y1="10.31" x2="1.61" y2="10.31" gradientUnits="userSpaceOnUse">
      <stop offset="0" stop-color="#fff"/>
      <stop offset="1" stop-color="#8682a4"/>
    </linearGradient>
  </defs>
  <g class="cls-6">
    <g id="Layer_2" data-name="Layer 2">
      <g id="Layer_1-2" data-name="Layer 1">
        <g>
          <g>
            <g>
              <path class="cls-8" d="M27.24,12.72c0,4.97-2.85,9.28-7.01,11.37-1.72.87-3.66,1.35-5.71,1.35s-3.86-.45-5.53-1.26c-.17-.08-.57-.16-.73-.24-1.66-.9-2.86-2.16-3.97-3.67-1.46-1.97-2.36-4.38-2.47-6.99-.01-.18-.01-.37-.01-.56,0-1.02.12-2.01.35-2.96.06-.27.14-.53.22-.79.89-2.91,2.81-5.37,5.32-6.98,1.97-1.26,4.32-1.99,6.84-1.99,3.48,0,6.63,1.4,8.93,3.66,2.28,2.25,3.72,5.35,3.78,8.79,0,.09,0,.18,0,.27"/>
              <path class="cls-1" d="M22.83,5.13C19.08.54,12.31-.14,7.72,3.62c-.43.35-.82.73-1.18,1.13h8.37v17.92c2.27-.08,4.52-.87,6.41-2.42,4.59-3.75,5.27-10.52,1.51-15.11Z"/>
              <path class="cls-4" d="M22.89,11.15c-.01.1-.03.2-.04.3-.64,4.5-2.21,10.41-4.22,13.31.55-.19,1.09-.41,1.61-.67,1.79-3.05,3.18-8.37,3.78-12.53-.36-.14-.73-.27-1.13-.4"/>
              <g>
                <path class="cls-9" d="M26.64,6.08c-.71-1.17-3.76-2.51-8.15-3.42-6.08-1.26-12.43-1.21-14.16.11-.06.04-.11.09-.16.13C3.59,3.48,1.3,6.15.11,10.54c.61-1.22,3.74-1.69,6.05-1.79,3.22-.13,7.16.35,7.16.35,0,0-.53,4.11-1.68,8.15-1.44,5.05-4.11,7.85-5.54,7.47.03.02.07.03.1.04,2.2.73,6.67,1.63,9.98,1.76,3.16.12,5.68-8.4,6.76-15.37,3.75,1.16,5.59,2.55,5.46,3.69.51-4.39-1.03-7.34-1.76-8.76Z"/>
                <path class="cls-2" d="M4.79,22.75s-.02-.05-.03-.08c0,.03.02.05.03.08Z"/>
              </g>
              <path class="cls-5" d="M13.32,9.11c-1.34-.26-5.15-.9-8.54-.58C-.05,8.99.11,10.64.08,10.81c.05-.28.18-.6.54-.78,3.38-1.66,12.7-.93,12.7-.93Z"/>
              <g>
                <path class="cls-3" d="M6.42,21.65c-1.14.04-1.94-1.12-1.94-1.12.04.11.09.22.15.32,0-.03.01-.06.02-.09,3.6,4.77,6.85-6.45,7.41-10.38.01-.1.03-.2.04-.3-3.84-.45-10.11-1.3-10.28,2.47,0,0,0,0,0,0,0,.06,0,.11,0,.17,0,.07,0,.15,0,.22,0,0,0,0,0,0h0s0,0,0,0c0,.05,0,.1,0,.14.02-.74.42-3.28,5.19-3.12,1.6.05,3.35.21,4.75.38h.02c-.55,3.85-2.94,11.24-5.35,11.31Z"/>
                <path class="cls-3" d="M1.81,13.29c0-.07,0-.14,0-.2,0,.13,0,.2,0,.2Z"/>
              </g>
              <g>
                <path class="cls-5" d="M6.14,24.74s0,0,0,0c0,0,.02,0,.02,0-.01,0-.02,0-.03,0Z"/>
                <path class="cls-5" d="M11.64,17.26c-1.35,4.72-3.76,7.47-5.24,7.5,1.4.03,2.89-1.61,3.73-3.14,2.13-3.83,2.89-8.59,3.19-12.52,0,0-.53,4.11-1.68,8.15Z"/>
              </g>
              <g>
                <polygon class="cls-12" points="1.8 12.94 1.81 12.95 1.81 12.95 1.8 12.94"/>
                <path class="cls-13" d="M12.09,10.09c-.01.1-.03.2-.04.3-.56,3.93-3.81,15.15-7.41,10.38-.07.31-.15,1.24.2,2.12.28.71.89,1.37,1.7,1.47.7.08,3.15-1.89,4.65-6.71.78-2.5,1.33-5.21,1.76-8.18-1.75-.2-3.96-.41-6.1-.36-3.19.07-5.86.57-6.41,1.6-.3.57.6,1.35,1.37,1.85.17-3.78,6.45-2.93,10.28-2.47Z"/>
              </g>
              <path class="cls-5" d="M28.36,14.41c-.14-1.34-3.32-2.94-5.42-3.25,4.26,1.39,5.22,2.62,5.42,3.25Z"/>
              <path class="cls-13" d="M22.89,11.44c-.06.35-.11.7-.18,1.05h0c4.91,1.7,4.13,3.39,4.13,3.38.77-.24,1.2-.8,1.26-.99.19-.59-.86-2.02-5.22-3.44Z"/>
              <path class="cls-7" d="M13.32,9.11s-.53,4.11-1.68,8.15c-1.55,5.4-4.49,8.23-5.82,7.35-2.22-1.48-1.34-4.07-1.34-4.07.05.08.11.14.17.22-.07.3-.16,1.24.2,2.13.28.71.89,1.37,1.7,1.47.7.08,3.15-1.89,4.65-6.71.78-2.5,1.33-5.21,1.76-8.18-1.75-.2-3.96-.41-6.1-.36-3.19.07-5.86.57-6.41,1.6-.3.57.6,1.35,1.38,1.85,0,.05,0,.1,0,.16,0,.08,0,.15,0,.23-1.14-.67-1.81-1.34-1.81-1.96,0-1.56,3.58-2.13,6.16-2.23,3.22-.13,7.16.35,7.16.35ZM28.29,14.24c-.32-.67-1.46-1.8-5.35-3.08,0,0,0,0,0,0-.01.09-.03.18-.04.28,4.35,1.42,5.41,2.85,5.22,3.44-.06.19-.49.75-1.26.99-.03.11-.06.22-.09.32,1.05-.23,1.6-.99,1.64-1.34.02-.2-.02-.4-.11-.61ZM28.4,14.85s0-.05,0-.1c0,.03,0,.07,0,.1Z"/>
              <path class="cls-11" d="M20.24,3.38s-.04-.01-.06-.02c-.23-.06-.46-.11-.7-.17-.04,0-.07-.02-.11-.03-.28-.06-.56-.12-.85-.18-2.79-.58-5.74-.9-8.31-.9-.22,0-.43,0-.64,0-.06,0-.11,0-.17,0-.15,0-.3.01-.45.02-.05,0-.1,0-.15,0-.17,0-.34.02-.5.03-.01,0-.02,0-.04,0-.18.01-.36.03-.53.05,0,0-.01,0-.02,0h0c-1.46.16-2.34.46-2.72.75-.02.01-.04.03-.06.05-1.38,1.34-2.92,4.16-3.31,5.23,1.74-.61,4.22-.72,6.21-.76,2.77-.05,6.63.46,6.63.46,0,0-.03.29-.08.74-.11,1.03-.35,2.99-.71,5.03,1.36.87,2.87,1.54,4.47,1.98.98.25,2.02.4,3.11.46.42-1.65,1.24-6.53,1.24-6.53l.9.3c1.57.52,3.29,1.22,4.48,2.09-.14-2.88-1.17-4.9-1.74-6-.45-.7-2.45-1.76-5.89-2.63Z"/>
              <path class="cls-10" d="M20.18,3.37c-.23-.06-.46-.11-.7-.17-.04,0-.07-.02-.11-.03-.28-.06-.56-.12-.85-.18-2.79-.58-5.74-.9-8.31-.9-.22,0-.43,0-.64,0-.06,0-.11,0-.17,0-.15,0-.3.01-.45.02-.05,0-.1,0-.15,0-.17,0-.34.02-.5.03-.01,0-.02,0-.04,0-.18.01-.36.03-.53.05,0,0-.01,0-.02,0h0c-1.46.16-2.34.46-2.72.75-.02.01-.04.03-.06.05-1.38,1.34-2.92,4.16-3.31,5.23,1.74-.61,4.22-.72,6.21-.76,2.77-.05,6.63.46,6.63.46,0,0-.03.29-.08.74-.2,1.89-.83,6.93-1.89,9.83,1.69-.87,3.18-1.94,4.44-3.18,0,0,0,0,0,0,2.92-2.94,4.73-6.99,4.73-11.47,0-.03,0-.07,0-.1-.44-.13-.92-.27-1.42-.4-.02,0-.04-.01-.06-.02Z"/>
            </g>
            <path class="cls-13" d="M36.4,21.95c-.29,0-.54.05-.77.14-.17.07-.32.18-.46.32-.14.14-.25.31-.33.49-.11.25-.16.55-.16.91,0,.56.16,1.01.47,1.33.31.32.73.48,1.26.48s.94-.16,1.25-.49c.31-.32.47-.77.47-1.35s-.16-1.03-.47-1.35c-.31-.32-.73-.49-1.26-.49M37.11,24.7c-.18.21-.42.31-.7.31s-.52-.1-.71-.31c-.19-.21-.28-.51-.28-.91s.09-.71.27-.92c.18-.2.42-.3.71-.3s.53.1.71.3c.18.2.27.5.27.91s-.09.72-.28.93M41.88,22.06c-.13-.04-.42-.05-.85-.05h-1.15v3.55h.72v-1.34h.47c.32,0,.57-.02.74-.05.13-.03.25-.08.37-.17.12-.08.22-.2.3-.35.08-.15.12-.33.12-.55,0-.28-.07-.51-.21-.69-.14-.18-.31-.29-.51-.35M41.78,23.39c-.05.08-.13.14-.22.17-.1.04-.28.06-.57.06h-.39v-1.01h.35c.26,0,.43,0,.52.02.12.02.21.07.29.16.08.08.11.19.11.32,0,.1-.03.2-.08.28M45.1,23.99h1.78v-.6h-1.78v-.79h1.92v-.6h-2.63v3.55h2.7v-.6h-1.98v-.97ZM51.23,24.29c-.1-.11-.23-.21-.38-.3.31-.05.55-.16.7-.33.16-.17.24-.39.24-.66,0-.21-.05-.4-.16-.56-.1-.16-.24-.28-.41-.34-.17-.06-.45-.1-.83-.1h-1.51v3.55h.72v-1.48h.15c.16,0,.28.01.36.04.08.03.15.08.22.15.07.07.19.25.38.52l.52.77h.86l-.43-.69c-.17-.28-.31-.47-.41-.58M50.13,23.51h-.53v-.9h.56c.29,0,.47,0,.52.01.12.02.21.07.27.14.06.07.1.17.1.29,0,.11-.02.2-.07.27-.05.07-.12.12-.2.15-.09.03-.3.04-.64.04M54.68,22.01l-1.38,3.55h.76l.29-.81h1.42l.31.81h.78l-1.42-3.55h-.76ZM54.57,24.15l.48-1.32.49,1.32h-.97ZM60.95,22.4c-.15-.16-.33-.27-.54-.33-.16-.05-.38-.07-.68-.07h-1.31v3.55h1.35c.27,0,.48-.03.63-.08.21-.07.38-.16.5-.28.16-.16.29-.37.38-.63.07-.21.11-.46.11-.76,0-.33-.04-.61-.12-.84-.08-.23-.19-.42-.34-.57M60.59,24.44c-.05.16-.11.27-.19.34-.08.07-.17.12-.29.15-.09.02-.23.03-.43.03h-.54v-2.35h.32c.29,0,.49.01.59.03.13.03.25.09.33.17.09.08.16.2.2.34.05.15.07.36.07.63s-.02.49-.07.65M64.77,21.95c-.29,0-.54.05-.77.14-.17.07-.32.18-.46.32-.14.14-.25.31-.33.49-.11.25-.16.55-.16.91,0,.56.16,1.01.47,1.33.31.32.73.48,1.26.48s.94-.16,1.25-.49c.31-.32.47-.77.47-1.35s-.16-1.03-.47-1.35c-.31-.32-.73-.49-1.26-.49M65.49,24.7c-.18.21-.42.31-.7.31s-.52-.1-.71-.31c-.19-.21-.28-.51-.28-.91s.09-.71.27-.92c.18-.2.42-.3.71-.3s.53.1.71.3c.18.2.27.5.27.91s-.09.72-.28.93M70.61,24.29c-.1-.11-.23-.21-.38-.3.31-.05.55-.16.7-.33.16-.17.24-.39.24-.66,0-.21-.05-.4-.15-.56-.1-.16-.24-.28-.41-.34-.17-.06-.45-.1-.83-.1h-1.51v3.55h.72v-1.48h.15c.16,0,.28.01.36.04.08.03.15.08.22.15.07.07.19.25.38.52l.52.77h.86l-.43-.69c-.17-.28-.31-.47-.41-.58M69.5,23.51h-.53v-.9h.56c.29,0,.47,0,.52.01.12.02.21.07.27.14.06.07.1.17.1.29,0,.11-.02.2-.07.27-.05.07-.12.12-.2.15-.08.03-.3.04-.64.04M76.33,22.04h-.72v3.52h2.5v-.6h-1.78v-2.92ZM81.39,21.95c-.29,0-.54.05-.77.14-.17.07-.32.18-.46.32-.14.14-.25.31-.33.49-.11.25-.16.55-.16.91,0,.56.16,1.01.47,1.33.31.32.73.48,1.26.48s.94-.16,1.25-.49c.31-.32.47-.77.47-1.35s-.16-1.03-.47-1.35c-.31-.32-.73-.49-1.26-.49M82.1,24.7c-.18.21-.42.31-.7.31s-.52-.1-.71-.31c-.19-.21-.28-.51-.28-.91s.09-.71.27-.92c.18-.2.42-.3.71-.3s.53.1.71.3c.18.2.27.5.27.91s-.09.72-.28.93M86.52,24.25h.82v.45c-.11.08-.24.16-.39.21-.15.06-.3.09-.45.09-.3,0-.55-.11-.74-.32-.19-.21-.28-.53-.28-.95,0-.39.09-.68.28-.88.18-.2.43-.3.75-.3.21,0,.38.05.52.15.14.1.23.24.28.41l.71-.13c-.07-.33-.23-.58-.48-.77-.25-.18-.59-.28-1.03-.28-.34,0-.62.06-.85.18-.3.15-.53.37-.68.66-.16.29-.23.62-.23.98,0,.34.07.66.21.95.14.29.35.51.62.67.28.16.6.23.97.23.29,0,.58-.06.87-.17.28-.11.5-.24.65-.38v-1.41h-1.55v.6ZM89.81,21.81h.43l.67-.72h-.76l-.33.72ZM89.9,25.56h.72v-3.55h-.72v3.55ZM94.66,23.6c-.17-.09-.43-.17-.77-.26-.35-.08-.57-.16-.66-.24-.07-.06-.11-.13-.11-.22,0-.09.04-.16.11-.22.12-.08.28-.13.49-.13s.35.04.45.12c.1.08.17.21.2.39l.72-.03c-.01-.33-.13-.59-.35-.78-.23-.2-.56-.29-1.01-.29-.27,0-.51.04-.7.12-.19.08-.34.2-.44.36-.1.16-.15.33-.15.51,0,.28.11.52.33.71.16.14.42.26.81.35.3.07.49.13.57.15.12.04.21.1.26.15.05.06.07.13.07.21,0,.13-.06.24-.18.34-.12.1-.29.15-.52.15-.22,0-.39-.05-.52-.16-.13-.11-.21-.28-.26-.52l-.7.07c.05.4.19.7.43.91.24.21.59.31,1.03.31.31,0,.57-.04.77-.13.21-.09.37-.22.48-.4.11-.18.17-.37.17-.57,0-.22-.05-.41-.14-.57-.09-.15-.23-.27-.39-.36M96.73,22.61h1.05v2.95h.72v-2.95h1.05v-.6h-2.82v.6ZM101.19,25.56h.72v-3.55h-.72v3.55ZM105.76,24.82c-.14.12-.3.18-.49.18-.26,0-.47-.1-.63-.29-.16-.19-.24-.51-.24-.96,0-.42.08-.73.25-.92.16-.19.38-.28.64-.28.19,0,.35.05.49.16.13.11.22.25.26.44l.71-.17c-.08-.28-.2-.5-.36-.65-.27-.26-.62-.39-1.06-.39-.5,0-.9.16-1.2.49-.31.33-.46.79-.46,1.38,0,.56.15,1,.46,1.32.3.32.69.48,1.16.48.38,0,.7-.09.94-.28.25-.19.42-.48.53-.86l-.7-.22c-.06.26-.16.45-.3.57M111.38,22.44c-.31-.32-.73-.49-1.26-.49-.29,0-.54.05-.77.14-.17.07-.32.18-.46.32-.14.14-.25.31-.33.49-.11.25-.16.55-.16.91,0,.56.16,1.01.47,1.33.31.32.73.48,1.26.48s.94-.16,1.25-.49c.31-.32.47-.77.47-1.35s-.16-1.03-.47-1.35M110.84,24.7c-.18.21-.42.31-.7.31s-.52-.1-.71-.31c-.19-.21-.28-.51-.28-.91s.09-.71.27-.92c.18-.2.42-.3.71-.3s.53.1.71.3c.18.2.27.5.27.91s-.09.72-.27.93"/>
            <g>
              <path class="cls-13" d="M97.39,1.86h-5.68v16.14h5.68c5.14,0,8.33-2.85,8.33-8.04s-3.11-8.09-8.33-8.09M97.4,14.43h-1.7V5.43h1.7c2.48,0,4.16,1.63,4.16,4.52s-1.68,4.47-4.16,4.47"/>
              <polygon class="cls-13" points="30.42 5.39 34.74 5.39 34.74 18 39.04 18 39.04 5.39 43.36 5.39 43.36 1.86 30.42 1.86 30.42 5.39"/>
              <rect class="cls-13" x="107.56" y="1.86" width="4.29" height="16.14"/>
              <path class="cls-13" d="M80.41,1.86l-6.23,16.14h4.29l.85-2.2h5.49l.85,2.2h4.29l-6.23-16.14h-3.32ZM80.59,12.52l1.48-4.27,1.48,4.27h-2.96Z"/>
              <polygon class="cls-13" points="45.18 18 45.18 18.03 56.13 18.03 56.13 14.5 49.47 14.5 49.47 11.53 55.92 11.53 55.92 8 49.47 8 49.47 5.39 56.13 5.39 56.13 1.86 45.18 1.86 45.18 18"/>
              <path class="cls-13" d="M70.1,12.08c-.74,1.36-2.18,2.29-3.85,2.29-2.42,0-4.37-1.96-4.37-4.37s1.96-4.37,4.37-4.37c1.66,0,3.11.93,3.85,2.29h4.22c-.93-3.59-4.18-6.25-8.06-6.25-4.6,0-8.34,3.73-8.34,8.34s3.73,8.34,8.34,8.34c3.88,0,7.14-2.66,8.06-6.25h-4.22Z"/>
            </g>
          </g>
          <g>
            <path class="cls-14" d="M131.5,3.38v4.73h-.79V1.91h.61l3.84,4.82V1.92h.79v6.19h-.66l-3.79-4.73Z"/>
            <path class="cls-14" d="M139.95,8.15c-.44,0-.83-.09-1.19-.27-.36-.18-.67-.41-.92-.71-.26-.29-.45-.63-.59-1.01s-.21-.76-.21-1.16.07-.81.22-1.19.35-.71.62-1c.26-.29.57-.52.93-.69.36-.17.75-.26,1.17-.26s.83.09,1.19.27.66.42.92.72.45.63.59,1.01.21.76.21,1.15c0,.41-.07.81-.22,1.19-.15.38-.35.71-.61,1-.26.29-.57.52-.92.69-.36.17-.75.26-1.17.26ZM137.83,5.01c0,.31.05.62.15.91.1.29.25.55.43.78.19.23.41.41.67.54s.55.2.87.2.63-.07.89-.21.48-.33.67-.56c.18-.23.32-.49.42-.78.1-.29.14-.58.14-.88,0-.31-.05-.62-.15-.91-.1-.29-.25-.55-.44-.78-.19-.22-.41-.4-.67-.54s-.54-.2-.86-.2c-.33,0-.63.07-.89.21s-.48.32-.67.55c-.18.23-.32.49-.42.78-.1.29-.15.59-.15.89ZM140.1,1.17l-.51-.17.51-.88h.77l-.77,1.06Z"/>
            <path class="cls-14" d="M147.6,3.21c-.07-.08-.16-.16-.28-.24-.12-.08-.25-.14-.39-.21-.15-.06-.3-.11-.48-.15-.17-.04-.35-.06-.54-.06-.48,0-.84.09-1.06.27-.22.18-.34.43-.34.74,0,.17.03.31.1.42.06.11.17.21.3.28.14.08.31.15.51.21.2.06.45.12.72.18.32.07.61.15.87.24s.48.2.66.34c.18.13.32.3.42.49.1.19.14.43.14.71,0,.3-.06.55-.17.77-.12.22-.27.4-.48.54-.2.14-.44.25-.71.31-.27.07-.57.1-.89.1-.48,0-.93-.07-1.36-.22-.43-.15-.82-.37-1.17-.65l.38-.66c.09.1.21.2.36.3s.32.19.51.27c.19.08.39.14.61.19.22.05.45.07.69.07.44,0,.79-.08,1.03-.24s.37-.39.37-.71c0-.17-.04-.32-.12-.44-.08-.12-.19-.22-.34-.31-.15-.09-.34-.16-.56-.23-.22-.07-.48-.13-.76-.21-.31-.08-.59-.16-.83-.24s-.44-.19-.6-.31c-.16-.12-.28-.27-.36-.44-.08-.17-.12-.38-.12-.63,0-.3.06-.56.17-.79.11-.23.26-.42.46-.58.2-.16.43-.27.71-.35.27-.08.57-.12.89-.12.42,0,.8.06,1.13.19.34.13.64.3.9.51l-.37.64Z"/>
            <path class="cls-14" d="M130.89,10.64l2.05,5.21,2.04-5.21h.83l-2.53,6.19h-.68l-2.54-6.19h.83Z"/>
            <path class="cls-14" d="M138.03,10.64h.66l2.53,6.19h-.84l-.73-1.81h-2.6l-.72,1.81h-.84l2.54-6.19ZM139.48,14.41l-1.12-2.86-1.15,2.86h2.27Z"/>
            <path class="cls-14" d="M147.4,16.83v-4.79l-2.06,3.67h-.44l-2.07-3.67v4.79h-.79v-6.19h.83l2.24,4.02,2.25-4.02h.82v6.19h-.79Z"/>
            <path class="cls-14" d="M152.19,16.88c-.44,0-.83-.09-1.19-.27-.36-.18-.67-.41-.92-.71-.26-.29-.45-.63-.59-1.01s-.21-.76-.21-1.16.07-.81.22-1.19.35-.71.62-1c.26-.29.57-.52.93-.69.36-.17.75-.26,1.17-.26s.83.09,1.19.27.66.42.92.72.45.63.59,1.01.21.76.21,1.15c0,.41-.07.81-.22,1.19-.15.38-.35.71-.61,1-.26.29-.57.52-.92.69-.36.17-.75.26-1.17.26ZM150.07,13.74c0,.31.05.62.15.91.1.29.25.55.43.78.19.23.41.41.67.54s.55.2.87.2.63-.07.89-.21.48-.33.67-.56c.18-.23.32-.49.42-.78.1-.29.14-.58.14-.88,0-.31-.05-.62-.15-.91-.1-.29-.25-.55-.44-.78-.19-.22-.41-.4-.67-.54s-.54-.2-.86-.2c-.33,0-.63.07-.89.21s-.48.32-.67.55c-.18.23-.32.49-.42.78-.1.29-.15.59-.15.89Z"/>
            <path class="cls-14" d="M159.84,11.94c-.07-.08-.16-.16-.28-.24-.12-.08-.25-.14-.39-.21-.15-.06-.3-.11-.48-.15-.17-.04-.35-.06-.54-.06-.48,0-.84.09-1.06.27-.22.18-.34.43-.34.74,0,.17.03.31.1.42.06.11.17.21.3.28.14.08.31.15.51.21.2.06.45.12.72.18.32.07.61.15.87.24s.48.2.66.34c.18.13.32.3.42.49.1.19.14.43.14.71,0,.3-.06.55-.17.77-.12.22-.27.4-.48.54-.2.14-.44.25-.71.31-.27.07-.57.1-.89.1-.48,0-.93-.07-1.36-.22-.43-.15-.82-.37-1.17-.65l.38-.66c.09.1.21.2.36.3s.32.19.51.27c.19.08.39.14.61.19.22.05.45.07.69.07.44,0,.79-.08,1.03-.24s.37-.39.37-.71c0-.17-.04-.32-.12-.44-.08-.12-.19-.22-.34-.31-.15-.09-.34-.16-.56-.23-.22-.07-.48-.13-.76-.21-.31-.08-.59-.16-.83-.24s-.44-.19-.6-.31c-.16-.12-.28-.27-.36-.44-.08-.17-.12-.38-.12-.63,0-.3.06-.56.17-.79.11-.23.26-.42.46-.58.2-.16.43-.27.71-.35.27-.08.57-.12.89-.12.42,0,.8.06,1.13.19.34.13.64.3.9.51l-.37.64Z"/>
            <path class="cls-14" d="M132.6,19.36h.66l2.53,6.19h-.84l-.73-1.81h-2.6l-.72,1.81h-.84l2.54-6.19ZM134.05,23.13l-1.12-2.86-1.15,2.86h2.27Z"/>
            <path class="cls-14" d="M136.62,25.56v-6.19h.79v5.5h3.46v.7h-4.24Z"/>
            <path class="cls-14" d="M145.92,24.86v.7h-4.21v-6.19h4.13v.7h-3.34v2.01h2.91v.65h-2.91v2.14h3.42ZM144.02,18.62l-.51-.17.51-.88h.77l-.77,1.06Z"/>
            <path class="cls-14" d="M152.35,25.56v-4.79l-2.06,3.67h-.44l-2.07-3.67v4.79h-.79v-6.19h.83l2.24,4.02,2.25-4.02h.82v6.19h-.79Z"/>
          </g>
          <line class="cls-15" x1="120.92" y1=".16" x2="120.92" y2="26.53"/>
        </g>
      </g>
    </g>
  </g>
</svg>