<?xml version="1.0" encoding="UTF-8"?>
<svg id="Layer_2" data-name="Layer 2" xmlns="http://www.w3.org/2000/svg" viewBox="0 0 30.42 25.44">
  <defs>
    <style>
      .cls-1 {
        fill: #16406d;
      }
    </style>
  </defs>
  <g id="Layer_1-2" data-name="Layer 1">
    <g>
      <path class="cls-1" d="M1.44,3.26v4.73h-.79V1.8h.61l3.84,4.82V1.81h.79v6.19h-.66L1.44,3.26Z"/>
      <path class="cls-1" d="M9.88,8.04c-.44,0-.83-.09-1.19-.27-.36-.18-.67-.41-.92-.71-.26-.29-.45-.63-.59-1.01s-.21-.76-.21-1.16.07-.81.22-1.19.35-.71.62-1c.26-.29.57-.52.93-.69.36-.17.75-.26,1.17-.26s.83.09,1.19.27.66.42.92.72.45.63.59,1.01.21.76.21,1.15c0,.41-.07.81-.22,1.19-.15.38-.35.71-.61,1-.26.29-.57.52-.92.69-.36.17-.75.26-1.17.26ZM7.76,4.89c0,.31.05.62.15.91.1.29.25.55.43.78.19.23.41.41.67.54s.55.2.87.2.63-.07.89-.21.48-.33.67-.56c.18-.23.32-.49.42-.78.1-.29.14-.58.14-.88,0-.31-.05-.62-.15-.91-.1-.29-.25-.55-.44-.78-.19-.22-.41-.4-.67-.54s-.54-.2-.86-.2c-.33,0-.63.07-.89.21s-.48.32-.67.55c-.18.23-.32.49-.42.78-.1.29-.15.59-.15.89ZM10.03,1.06l-.51-.17.51-.88h.77l-.77,1.06Z"/>
      <path class="cls-1" d="M17.54,3.1c-.07-.08-.16-.16-.28-.24-.12-.08-.25-.14-.39-.21-.15-.06-.3-.11-.48-.15-.17-.04-.35-.06-.54-.06-.48,0-.84.09-1.06.27-.22.18-.34.43-.34.74,0,.17.03.31.1.42.06.11.17.21.3.28.14.08.31.15.51.21.2.06.45.12.72.18.32.07.61.15.87.24s.48.2.66.34c.18.13.32.3.42.49.1.19.14.43.14.71,0,.3-.06.55-.17.77-.12.22-.27.4-.48.54-.2.14-.44.25-.71.31-.27.07-.57.1-.89.1-.48,0-.93-.07-1.36-.22-.43-.15-.82-.37-1.17-.65l.38-.66c.09.1.21.2.36.3s.32.19.51.27c.19.08.39.14.61.19.22.05.45.07.69.07.44,0,.79-.08,1.03-.24s.37-.39.37-.71c0-.17-.04-.32-.12-.44-.08-.12-.19-.22-.34-.31-.15-.09-.34-.16-.56-.23-.22-.07-.48-.13-.76-.21-.31-.08-.59-.16-.83-.24s-.44-.19-.6-.31c-.16-.12-.28-.27-.36-.44-.08-.17-.12-.38-.12-.63,0-.3.06-.56.17-.79.11-.23.26-.42.46-.58.2-.16.43-.27.71-.35.27-.08.57-.12.89-.12.42,0,.8.06,1.13.19.34.13.64.3.9.51l-.37.64Z"/>
      <path class="cls-1" d="M.83,10.52l2.05,5.21,2.04-5.21h.83l-2.53,6.19h-.68L0,10.52h.83Z"/>
      <path class="cls-1" d="M7.96,10.52h.66l2.53,6.19h-.84l-.73-1.81h-2.6l-.72,1.81h-.84l2.54-6.19ZM9.41,14.29l-1.12-2.86-1.15,2.86h2.27Z"/>
      <path class="cls-1" d="M17.34,16.71v-4.79l-2.06,3.67h-.44l-2.07-3.67v4.79h-.79v-6.19h.83l2.24,4.02,2.25-4.02h.82v6.19h-.79Z"/>
      <path class="cls-1" d="M22.12,16.76c-.44,0-.83-.09-1.19-.27-.36-.18-.67-.41-.92-.71-.26-.29-.45-.63-.59-1.01s-.21-.76-.21-1.16.07-.81.22-1.19.35-.71.62-1c.26-.29.57-.52.93-.69.36-.17.75-.26,1.17-.26s.83.09,1.19.27.66.42.92.72.45.63.59,1.01.21.76.21,1.15c0,.41-.07.81-.22,1.19-.15.38-.35.71-.61,1-.26.29-.57.52-.92.69-.36.17-.75.26-1.17.26ZM20,13.62c0,.31.05.62.15.91.1.29.25.55.43.78.19.23.41.41.67.54s.55.2.87.2.63-.07.89-.21.48-.33.67-.56c.18-.23.32-.49.42-.78.1-.29.14-.58.14-.88,0-.31-.05-.62-.15-.91-.1-.29-.25-.55-.44-.78-.19-.22-.41-.4-.67-.54s-.54-.2-.86-.2c-.33,0-.63.07-.89.21s-.48.32-.67.55c-.18.23-.32.49-.42.78-.1.29-.15.59-.15.89Z"/>
      <path class="cls-1" d="M29.78,11.82c-.07-.08-.16-.16-.28-.24-.12-.08-.25-.14-.39-.21-.15-.06-.3-.11-.48-.15-.17-.04-.35-.06-.54-.06-.48,0-.84.09-1.06.27-.22.18-.34.43-.34.74,0,.17.03.31.1.42.06.11.17.21.3.28.14.08.31.15.51.21.2.06.45.12.72.18.32.07.61.15.87.24s.48.2.66.34c.18.13.32.3.42.49.1.19.14.43.14.71,0,.3-.06.55-.17.77-.12.22-.27.4-.48.54-.2.14-.44.25-.71.31-.27.07-.57.1-.89.1-.48,0-.93-.07-1.36-.22-.43-.15-.82-.37-1.17-.65l.38-.66c.09.1.21.2.36.3s.32.19.51.27c.19.08.39.14.61.19.22.05.45.07.69.07.44,0,.79-.08,1.03-.24s.37-.39.37-.71c0-.17-.04-.32-.12-.44-.08-.12-.19-.22-.34-.31-.15-.09-.34-.16-.56-.23-.22-.07-.48-.13-.76-.21-.31-.08-.59-.16-.83-.24s-.44-.19-.6-.31c-.16-.12-.28-.27-.36-.44-.08-.17-.12-.38-.12-.63,0-.3.06-.56.17-.79.11-.23.26-.42.46-.58.2-.16.43-.27.71-.35.27-.08.57-.12.89-.12.42,0,.8.06,1.13.19.34.13.64.3.9.51l-.37.64Z"/>
      <path class="cls-1" d="M2.54,19.25h.66l2.53,6.19h-.84l-.73-1.81H1.56l-.72,1.81h-.84l2.54-6.19ZM3.99,23.01l-1.12-2.86-1.15,2.86h2.27Z"/>
      <path class="cls-1" d="M6.56,25.44v-6.19h.79v5.5h3.46v.7h-4.24Z"/>
      <path class="cls-1" d="M15.86,24.74v.7h-4.21v-6.19h4.13v.7h-3.34v2.01h2.91v.65h-2.91v2.14h3.42ZM13.96,18.5l-.51-.17.51-.88h.77l-.77,1.06Z"/>
      <path class="cls-1" d="M22.29,25.44v-4.79l-2.06,3.67h-.44l-2.07-3.67v4.79h-.79v-6.19h.83l2.24,4.02,2.25-4.02h.82v6.19h-.79Z"/>
    </g>
  </g>
</svg>