<?xml version="1.0" encoding="UTF-8"?>
<svg id="Layer_2" data-name="Layer 2" xmlns="http://www.w3.org/2000/svg" viewBox="0 0 81.43 23.97">
  <defs>
    <style>
      .cls-1 {
        fill: #193b68;
      }
    </style>
  </defs>
  <g id="Layer_1-2" data-name="Layer 1">
    <g>
      <path class="cls-1" d="M5.98,20.29c-.29,0-.54.05-.77.14-.17.07-.32.18-.46.32-.14.14-.25.31-.33.49-.11.25-.16.55-.16.91,0,.56.16,1.01.47,1.33.31.32.73.48,1.26.48s.94-.16,1.25-.49c.31-.32.47-.77.47-1.35s-.16-1.03-.47-1.35c-.31-.32-.73-.49-1.26-.49M6.69,23.04c-.18.21-.42.31-.7.31s-.52-.1-.71-.31c-.19-.21-.28-.51-.28-.91s.09-.71.27-.92c.18-.2.42-.3.71-.3s.53.1.71.3c.18.2.27.5.27.91s-.09.72-.28.93M11.46,20.41c-.13-.04-.42-.05-.85-.05h-1.15v3.55h.72v-1.34h.47c.32,0,.57-.02.74-.05.13-.03.25-.08.37-.17.12-.08.22-.2.3-.35.08-.15.12-.33.12-.55,0-.28-.07-.51-.21-.69-.14-.18-.31-.29-.51-.35M11.36,21.73c-.05.08-.13.14-.22.17-.1.04-.28.06-.57.06h-.39v-1.01h.35c.26,0,.43,0,.52.02.12.02.21.07.29.16.08.08.11.19.11.32,0,.1-.03.2-.08.28M14.67,22.34h1.78v-.6h-1.78v-.79h1.92v-.6h-2.63v3.55h2.7v-.6h-1.98v-.97ZM20.81,22.63c-.1-.11-.23-.21-.38-.3.31-.05.55-.16.7-.33.16-.17.24-.39.24-.66,0-.21-.05-.4-.16-.56-.1-.16-.24-.28-.41-.34-.17-.06-.45-.1-.83-.1h-1.51v3.55h.72v-1.48h.15c.16,0,.28.01.36.04.08.03.15.08.22.15.07.07.19.25.38.52l.52.77h.86l-.43-.69c-.17-.28-.31-.47-.41-.58M19.71,21.86h-.53v-.9h.56c.29,0,.47,0,.52.01.12.02.21.07.27.14.06.07.1.17.1.29,0,.11-.02.2-.07.27-.05.07-.12.12-.2.15-.09.03-.3.04-.64.04M24.25,20.35l-1.38,3.55h.76l.29-.81h1.42l.31.81h.78l-1.42-3.55h-.76ZM24.14,22.5l.48-1.32.49,1.32h-.97ZM30.52,20.75c-.15-.16-.33-.27-.54-.33-.16-.05-.38-.07-.68-.07h-1.31v3.55h1.35c.27,0,.48-.03.63-.08.21-.07.38-.16.5-.28.16-.16.29-.37.38-.63.07-.21.11-.46.11-.76,0-.33-.04-.61-.12-.84-.08-.23-.19-.42-.34-.57M30.17,22.78c-.05.16-.11.27-.19.34-.08.07-.17.12-.29.15-.09.02-.23.03-.43.03h-.54v-2.35h.32c.29,0,.49.01.59.03.13.03.25.09.33.17.09.08.16.2.2.34.05.15.07.36.07.63s-.02.49-.07.65M34.35,20.29c-.29,0-.54.05-.77.14-.17.07-.32.18-.46.32-.14.14-.25.31-.33.49-.11.25-.16.55-.16.91,0,.56.16,1.01.47,1.33.31.32.73.48,1.26.48s.94-.16,1.25-.49c.31-.32.47-.77.47-1.35s-.16-1.03-.47-1.35c-.31-.32-.73-.49-1.26-.49M35.06,23.04c-.18.21-.42.31-.7.31s-.52-.1-.71-.31c-.19-.21-.28-.51-.28-.91s.09-.71.27-.92c.18-.2.42-.3.71-.3s.53.1.71.3c.18.2.27.5.27.91s-.09.72-.28.93M40.18,22.63c-.1-.11-.23-.21-.38-.3.31-.05.55-.16.7-.33.16-.17.24-.39.24-.66,0-.21-.05-.4-.15-.56-.1-.16-.24-.28-.41-.34-.17-.06-.45-.1-.83-.1h-1.51v3.55h.72v-1.48h.15c.16,0,.28.01.36.04.08.03.15.08.22.15.07.07.19.25.38.52l.52.77h.86l-.43-.69c-.17-.28-.31-.47-.41-.58M39.08,21.86h-.53v-.9h.56c.29,0,.47,0,.52.01.12.02.21.07.27.14.06.07.1.17.1.29,0,.11-.02.2-.07.27-.05.07-.12.12-.2.15-.08.03-.3.04-.64.04M45.91,20.38h-.72v3.52h2.5v-.6h-1.78v-2.92ZM50.97,20.29c-.29,0-.54.05-.77.14-.17.07-.32.18-.46.32-.14.14-.25.31-.33.49-.11.25-.16.55-.16.91,0,.56.16,1.01.47,1.33.31.32.73.48,1.26.48s.94-.16,1.25-.49c.31-.32.47-.77.47-1.35s-.16-1.03-.47-1.35c-.31-.32-.73-.49-1.26-.49M51.68,23.04c-.18.21-.42.31-.7.31s-.52-.1-.71-.31c-.19-.21-.28-.51-.28-.91s.09-.71.27-.92c.18-.2.42-.3.71-.3s.53.1.71.3c.18.2.27.5.27.91s-.09.72-.28.93M56.1,22.6h.82v.45c-.11.08-.24.16-.39.21-.15.06-.3.09-.45.09-.3,0-.55-.11-.74-.32-.19-.21-.28-.53-.28-.95,0-.39.09-.68.28-.88.18-.2.43-.3.75-.3.21,0,.38.05.52.15.14.1.23.24.28.41l.71-.13c-.07-.33-.23-.58-.48-.77-.25-.18-.59-.28-1.03-.28-.34,0-.62.06-.85.18-.3.15-.53.37-.68.66-.16.29-.23.62-.23.98,0,.34.07.66.21.95.14.29.35.51.62.67.28.16.6.23.97.23.29,0,.58-.06.87-.17.28-.11.5-.24.65-.38v-1.41h-1.55v.6ZM59.39,20.15h.43l.67-.72h-.76l-.33.72ZM59.47,23.9h.72v-3.55h-.72v3.55ZM64.24,21.94c-.17-.09-.43-.17-.77-.26-.35-.08-.57-.16-.66-.24-.07-.06-.11-.13-.11-.22,0-.09.04-.16.11-.22.12-.08.28-.13.49-.13s.35.04.45.12c.1.08.17.21.2.39l.72-.03c-.01-.33-.13-.59-.35-.78-.23-.2-.56-.29-1.01-.29-.27,0-.51.04-.7.12-.19.08-.34.2-.44.36-.1.16-.15.33-.15.51,0,.28.11.52.33.71.16.14.42.26.81.35.3.07.49.13.57.15.12.04.21.1.26.15.05.06.07.13.07.21,0,.13-.06.24-.18.34-.12.1-.29.15-.52.15-.22,0-.39-.05-.52-.16-.13-.11-.21-.28-.26-.52l-.7.07c.05.4.19.7.43.91.24.21.59.31,1.03.31.31,0,.57-.04.77-.13.21-.09.37-.22.48-.4.11-.18.17-.37.17-.57,0-.22-.05-.41-.14-.57-.09-.15-.23-.27-.39-.36M66.31,20.95h1.05v2.95h.72v-2.95h1.05v-.6h-2.82v.6ZM70.77,23.9h.72v-3.55h-.72v3.55ZM75.33,23.17c-.14.12-.3.18-.49.18-.26,0-.47-.1-.63-.29-.16-.19-.24-.51-.24-.96,0-.42.08-.73.25-.92.16-.19.38-.28.64-.28.19,0,.35.05.49.16.13.11.22.25.26.44l.71-.17c-.08-.28-.2-.5-.36-.65-.27-.26-.62-.39-1.06-.39-.5,0-.9.16-1.2.49-.31.33-.46.79-.46,1.38,0,.56.15,1,.46,1.32.3.32.69.48,1.16.48.38,0,.7-.09.94-.28.25-.19.42-.48.53-.86l-.7-.22c-.06.26-.16.45-.3.57M80.96,20.78c-.31-.32-.73-.49-1.26-.49-.29,0-.54.05-.77.14-.17.07-.32.18-.46.32-.14.14-.25.31-.33.49-.11.25-.16.55-.16.91,0,.56.16,1.01.47,1.33.31.32.73.48,1.26.48s.94-.16,1.25-.49c.31-.32.47-.77.47-1.35s-.16-1.03-.47-1.35M80.41,23.04c-.18.21-.42.31-.7.31s-.52-.1-.71-.31c-.19-.21-.28-.51-.28-.91s.09-.71.27-.92c.18-.2.42-.3.71-.3s.53.1.71.3c.18.2.27.5.27.91s-.09.72-.27.93"/>
      <g>
        <path class="cls-1" d="M66.97.21h-5.68v16.14h5.68c5.14,0,8.33-2.85,8.33-8.04S72.19.21,66.97.21M66.97,12.77h-1.7V3.78h1.7c2.48,0,4.16,1.63,4.16,4.52s-1.68,4.47-4.16,4.47"/>
        <polygon class="cls-1" points="0 3.74 4.32 3.74 4.32 16.34 8.61 16.34 8.61 3.74 12.93 3.74 12.93 .21 0 .21 0 3.74"/>
        <rect class="cls-1" x="77.14" y=".21" width="4.29" height="16.14"/>
        <path class="cls-1" d="M49.99.21l-6.23,16.14h4.29l.85-2.2h5.49l.85,2.2h4.29L53.31.21h-3.32ZM50.17,10.86l1.48-4.27,1.48,4.27h-2.96Z"/>
        <polygon class="cls-1" points="14.76 16.34 14.76 16.38 25.71 16.38 25.71 12.85 19.05 12.85 19.05 9.88 25.49 9.88 25.49 6.35 19.05 6.35 19.05 3.74 25.71 3.74 25.71 .21 14.76 .21 14.76 16.34"/>
        <path class="cls-1" d="M39.68,10.42c-.74,1.36-2.18,2.29-3.85,2.29-2.42,0-4.37-1.96-4.37-4.37s1.96-4.37,4.37-4.37c1.66,0,3.11.93,3.85,2.29h4.22c-.93-3.59-4.18-6.25-8.06-6.25-4.6,0-8.34,3.73-8.34,8.34s3.73,8.34,8.34,8.34c3.88,0,7.14-2.66,8.06-6.25h-4.22Z"/>
      </g>
    </g>
  </g>
</svg>